<svg width="25" height="25" viewBox="0 0 25 25" fill="none" xmlns="http://www.w3.org/2000/svg">
<path fill-rule="evenodd" clip-rule="evenodd" d="M24.9903 12.5679C24.9903 15.7935 23.709 18.887 21.4281 21.1679C19.1473 23.4487 16.0538 24.7301 12.8282 24.7301C9.60257 24.7301 6.50908 23.4487 4.22823 21.1679C1.94738 18.887 0.666016 15.7935 0.666016 12.5679C0.666016 9.34232 1.94738 6.24882 4.22823 3.96798C6.50908 1.68713 9.60257 0.405762 12.8282 0.405762C16.0538 0.405762 19.1473 1.68713 21.4281 3.96798C23.709 6.24882 24.9903 9.34232 24.9903 12.5679ZM12.29 16.5906C12.1473 16.7333 12.0671 16.9269 12.0671 17.1287C12.0671 17.3306 12.1473 17.5242 12.29 17.6669C12.4327 17.8096 12.6263 17.8898 12.8282 17.8898C13.03 17.8898 13.2236 17.8096 13.3664 17.6669L17.9272 13.1061C17.998 13.0355 18.0541 12.9516 18.0924 12.8593C18.1308 12.7669 18.1505 12.6679 18.1505 12.5679C18.1505 12.4679 18.1308 12.3689 18.0924 12.2766C18.0541 12.1842 17.998 12.1004 17.9272 12.0297L13.3664 7.46894C13.2957 7.39826 13.2118 7.3422 13.1194 7.30395C13.0271 7.2657 12.9281 7.24602 12.8282 7.24602C12.7282 7.24602 12.6293 7.2657 12.5369 7.30395C12.4446 7.3422 12.3607 7.39826 12.29 7.46894C12.2193 7.53961 12.1633 7.62351 12.125 7.71585C12.0868 7.8082 12.0671 7.90717 12.0671 8.00711C12.0671 8.10706 12.0868 8.20603 12.125 8.29837C12.1633 8.39071 12.2193 8.47462 12.29 8.54529L15.554 11.8078H8.26737C8.06577 11.8078 7.87242 11.8879 7.72987 12.0304C7.58732 12.173 7.50723 12.3663 7.50723 12.5679C7.50723 12.7695 7.58732 12.9629 7.72987 13.1054C7.87242 13.248 8.06577 13.3281 8.26737 13.3281H15.554L12.29 16.5906Z" fill="black"/>
</svg>
