<svg width="20" height="20" viewBox="0 0 20 20" fill="none" xmlns="http://www.w3.org/2000/svg">
<path fill-rule="evenodd" clip-rule="evenodd" d="M10 20C7.34783 20 4.80429 18.9464 2.92893 17.0711C1.05357 15.1957 -5.53044e-07 12.6522 -4.37114e-07 10C-3.21184e-07 7.34783 1.05357 4.8043 2.92893 2.92893C4.8043 1.05357 7.34783 -5.53044e-07 10 -4.37114e-07C12.6522 -3.21184e-07 15.1957 1.05357 17.0711 2.92893C18.9464 4.8043 20 7.34784 20 10C20 12.6522 18.9464 15.1957 17.0711 17.0711C15.1957 18.9464 12.6522 20 10 20ZM6.6925 9.5575C6.57514 9.44014 6.41597 9.37421 6.25 9.37421C6.08403 9.37421 5.92486 9.44014 5.8075 9.5575C5.69014 9.67486 5.62421 9.83403 5.62421 10C5.62421 10.166 5.69014 10.3251 5.8075 10.4425L9.5575 14.1925C9.61556 14.2507 9.68453 14.2969 9.76046 14.3284C9.83639 14.3599 9.91779 14.3761 10 14.3761C10.0822 14.3761 10.1636 14.3599 10.2395 14.3284C10.3155 14.2969 10.3844 14.2507 10.4425 14.1925L14.1925 10.4425C14.2506 10.3844 14.2967 10.3154 14.3282 10.2395C14.3596 10.1636 14.3758 10.0822 14.3758 10C14.3758 9.91782 14.3596 9.83644 14.3282 9.76052C14.2967 9.6846 14.2506 9.61561 14.1925 9.5575C14.1344 9.49939 14.0654 9.45329 13.9895 9.42185C13.9136 9.3904 13.8322 9.37421 13.75 9.37421C13.6678 9.37421 13.5864 9.3904 13.5105 9.42185C13.4346 9.45329 13.3656 9.49939 13.3075 9.5575L10.625 12.2412L10.625 6.25C10.625 6.08424 10.5592 5.92527 10.4419 5.80806C10.3247 5.69085 10.1658 5.625 10 5.625C9.83424 5.625 9.67527 5.69085 9.55806 5.80806C9.44085 5.92527 9.375 6.08424 9.375 6.25L9.375 12.2412L6.6925 9.5575Z" fill="#603DBD"/>
</svg>
