<svg width="46" height="46" viewBox="0 0 46 46" fill="none" xmlns="http://www.w3.org/2000/svg">
<path d="M31.3498 6.21786C33.5679 6.22448 35.6934 7.10858 37.2619 8.67708C38.8304 10.2456 39.7145 12.371 39.7211 14.5892V31.33C39.7145 33.5482 38.8304 35.6736 37.2619 37.2421C35.6934 38.8106 33.5679 39.6947 31.3498 39.7013H14.6089C12.3908 39.6947 10.2653 38.8106 8.69685 37.2421C7.12836 35.6736 6.24426 33.5482 6.23763 31.33V14.5892C6.24426 12.371 7.12836 10.2456 8.69685 8.67708C10.2653 7.10858 12.3908 6.22448 14.6089 6.21786H31.3498ZM31.3498 2.86987H14.6089C8.1632 2.86987 2.88965 8.14342 2.88965 14.5892V31.33C2.88965 37.7757 8.1632 43.0493 14.6089 43.0493H31.3498C37.7955 43.0493 43.0691 37.7757 43.0691 31.33V14.5892C43.0691 8.14342 37.7955 2.86987 31.3498 2.86987Z" fill="#603DBD"/>
<path d="M33.8608 14.5894C33.3642 14.5894 32.8786 14.4422 32.4657 14.1662C32.0527 13.8903 31.7308 13.4981 31.5408 13.0392C31.3507 12.5804 31.301 12.0754 31.3979 11.5883C31.4948 11.1012 31.7339 10.6537 32.0851 10.3025C32.4363 9.95134 32.8838 9.71217 33.3709 9.61527C33.858 9.51837 34.363 9.5681 34.8218 9.75817C35.2807 9.94824 35.6729 10.2701 35.9488 10.6831C36.2248 11.096 36.372 11.5816 36.372 12.0782C36.3727 12.4082 36.3083 12.7351 36.1823 13.0401C36.0564 13.3451 35.8714 13.6222 35.6381 13.8555C35.4048 14.0888 35.1277 14.2738 34.8227 14.3997C34.5177 14.5257 34.1908 14.5902 33.8608 14.5894Z" fill="#603DBD"/>
<path d="M22.9794 16.2628C24.3039 16.2628 25.5987 16.6555 26.7 17.3914C27.8013 18.1273 28.6597 19.1732 29.1665 20.3969C29.6734 21.6206 29.806 22.9671 29.5476 24.2661C29.2892 25.5652 28.6514 26.7585 27.7148 27.695C26.7783 28.6316 25.585 29.2694 24.2859 29.5278C22.9869 29.7862 21.6403 29.6536 20.4166 29.1467C19.193 28.6399 18.147 27.7815 17.4112 26.6802C16.6753 25.5789 16.2826 24.2842 16.2826 22.9596C16.2845 21.1841 16.9906 19.4818 18.2461 18.2263C19.5016 16.9709 21.2039 16.2647 22.9794 16.2628ZM22.9794 12.9148C20.9927 12.9148 19.0507 13.5039 17.3988 14.6077C15.7469 15.7114 14.4595 17.2802 13.6992 19.1156C12.9389 20.9511 12.74 22.9708 13.1276 24.9193C13.5152 26.8678 14.4718 28.6576 15.8766 30.0624C17.2814 31.4672 19.0713 32.4239 21.0198 32.8115C22.9683 33.1991 24.988 33.0002 26.8234 32.2399C28.6589 31.4796 30.2277 30.1921 31.3314 28.5403C32.4352 26.8884 33.0243 24.9463 33.0243 22.9596C33.0243 20.2956 31.966 17.7406 30.0822 15.8569C28.1984 13.9731 25.6435 12.9148 22.9794 12.9148Z" fill="#603DBD"/>
</svg>
