<svg width="476" height="454" viewBox="0 0 476 454" fill="none" xmlns="http://www.w3.org/2000/svg">
<path d="M316.995 281.458C317.587 281.458 318.169 281.204 318.619 280.685L325.407 272.862L331.117 279.433C331.56 279.952 332.151 280.207 332.734 280.207C333.324 280.207 333.907 279.952 334.358 279.433C335.258 278.406 335.258 276.728 334.358 275.7L328.655 269.129L335.267 261.509C336.158 260.471 336.158 258.803 335.267 257.765C334.367 256.738 332.919 256.738 332.018 257.765L323.783 267.256L315.371 276.952C314.479 277.979 314.479 279.658 315.371 280.685C315.821 281.204 316.413 281.458 316.995 281.458Z" fill="#603DBD"/>
<path d="M309.913 159.014C308.65 159.014 307.618 160.195 307.618 161.649V204.6C307.618 206.065 308.65 207.244 309.913 207.244C311.184 207.244 312.208 206.065 312.208 204.6V161.649C312.208 160.195 311.184 159.014 309.913 159.014Z" fill="#4B58CC"/>
<path d="M275.135 331.693C283.591 331.693 290.44 323.788 290.44 314.053C290.44 304.306 283.591 296.402 275.135 296.402C266.679 296.402 259.829 304.306 259.829 314.053C259.829 323.788 266.679 331.693 275.135 331.693Z" fill="#603DBD"/>
<path d="M232.174 322.506C228.617 322.506 225.475 324.581 223.611 327.734C221.318 321.163 215.73 316.523 209.215 316.523C207.688 316.523 206.443 317.949 206.443 319.718C206.443 321.489 207.688 322.913 209.215 322.913C214.714 322.913 219.189 328.07 219.189 334.408C219.189 340.746 214.714 345.903 209.215 345.903C207.688 345.903 206.443 347.327 206.443 349.098C206.443 350.868 207.688 352.293 209.215 352.293C215.721 352.293 221.309 347.663 223.604 341.102C225.465 344.266 228.609 346.342 232.174 346.342C237.885 346.342 242.511 341.01 242.511 334.429C242.511 327.847 237.885 322.506 232.174 322.506Z" fill="#603DBD"/>
<path d="M138.337 332.425C140.535 332.425 142.309 330.371 142.309 327.848C142.309 325.315 140.535 323.27 138.337 323.27C136.148 323.27 134.365 325.315 134.365 327.848C134.365 330.371 136.148 332.425 138.337 332.425Z" fill="#4B58CC"/>
<path d="M126.428 311.123C126.869 311.509 127.381 311.692 127.893 311.692C128.626 311.692 129.35 311.316 129.826 310.594L135.352 302.242C136.164 301.011 135.961 299.261 134.893 298.324C133.825 297.389 132.306 297.624 131.495 298.854L125.969 307.206C125.157 308.438 125.36 310.188 126.428 311.123Z" fill="#4B58CC"/>
<path d="M117.292 308.345C118.633 308.345 119.719 307.094 119.719 305.558V288.64C119.719 287.093 118.633 285.842 117.292 285.842C115.959 285.842 114.873 287.093 114.873 288.64V305.558C114.873 307.094 115.959 308.345 117.292 308.345Z" fill="#4B58CC"/>
<path d="M104.68 310.594C105.157 311.316 105.871 311.692 106.604 311.692C107.115 311.692 107.636 311.509 108.069 311.123C109.138 310.186 109.34 308.437 108.528 307.206L103.003 298.854C102.19 297.624 100.672 297.389 99.6047 298.324C98.5446 299.261 98.342 301.011 99.1455 302.242L104.68 310.594Z" fill="#4B58CC"/>
<path d="M469.177 246.72C468.136 249.07 467.068 251.49 466.873 254.217C466.671 256.984 467.394 259.599 468.091 262.122C468.709 264.35 469.292 266.466 469.054 268.123C468.806 269.802 467.659 271.593 466.45 273.486C465.091 275.612 463.678 277.809 463.104 280.473C462.522 283.16 462.866 285.865 463.192 288.491C463.484 290.81 463.766 292.997 463.299 294.604C462.822 296.213 461.454 297.758 460.006 299.396C458.356 301.257 456.652 303.181 455.716 305.723C454.771 308.256 454.745 311.004 454.719 313.649C454.701 315.998 454.674 318.216 453.996 319.732C453.324 321.217 451.771 322.509 450.129 323.872C449.352 324.513 448.566 325.175 447.817 325.896L440.878 317.901C435.584 311.799 429.311 307.241 422.466 304.419C421.027 303.71 419.551 303.18 418.05 302.865C414.072 301.695 409.943 301.083 405.729 301.074C389.779 299.446 375.506 288.124 368.471 271.532C356.801 243.973 340.286 208.275 337.63 202.518C340.807 196.882 342.653 190.168 342.653 182.955V178.753C342.653 163.117 333.966 149.78 321.865 144.795C319.516 128.336 312.227 113.26 301.245 102.221C292.85 93.7782 282.701 88.1319 271.878 85.7516C272.055 84.439 272.249 83.1367 272.655 82.4349C273.079 81.7032 274.147 80.9601 275.188 80.2376C276.909 79.0377 278.87 77.6836 279.743 75.2424C280.608 72.8518 280.06 70.3196 279.584 68.0912C279.293 66.7073 278.993 65.2831 279.143 64.388C279.284 63.5539 280.016 62.4047 280.731 61.2957C281.932 59.4135 283.292 57.2875 283.292 54.6116C283.292 51.946 281.932 49.82 280.731 47.9379C280.016 46.83 279.293 45.6796 279.143 44.8455C278.993 43.9402 279.293 42.5159 279.584 41.1423C279.911 39.6375 280.264 37.9993 280.193 36.3507C281.491 36.7476 282.885 37.7853 284.351 38.884C286.319 40.3496 288.349 41.8751 290.759 42.3434C293.204 42.8104 295.569 42.1397 297.864 41.4886C299.807 40.9387 301.634 40.4095 303.037 40.7557C304.475 41.1124 305.977 42.4653 307.566 43.8895C309.42 45.5473 311.325 47.2661 313.691 47.969C316.084 48.6811 318.493 48.2439 320.823 47.8263C322.801 47.4708 324.663 47.1441 326.04 47.6227C327.443 48.1312 328.839 49.6268 330.312 51.2144C332.025 53.0447 333.79 54.9579 336.085 55.9035C338.406 56.8596 340.843 56.6766 343.2 56.5041C345.194 56.3614 347.075 56.2188 348.398 56.8492C349.767 57.5003 351.038 59.1386 352.379 60.878C353.925 62.8924 355.531 64.9782 357.738 66.1585C359.971 67.3688 362.407 67.4608 364.755 67.5414C366.758 67.6127 368.639 67.684 369.919 68.4571C371.225 69.2613 372.346 71.041 373.529 72.9231C374.906 75.0894 376.318 77.3385 378.41 78.7731C380.52 80.2272 382.929 80.5942 385.26 80.9497C387.246 81.2545 389.117 81.5502 390.309 82.466C391.545 83.422 392.498 85.3237 393.513 87.3484C394.678 89.6677 395.878 92.0687 397.821 93.7368C399.78 95.436 402.137 96.1078 404.415 96.7486C406.356 97.2974 408.201 97.8162 409.304 98.8954C410.434 99.994 411.202 102.019 412.014 104.155C412.941 106.606 413.903 109.14 415.651 111.052C417.425 112.985 419.693 113.961 421.882 114.907C423.763 115.722 425.537 116.484 426.525 117.705C427.541 118.946 428.088 121.072 428.67 123.311C429.332 125.864 430.013 128.509 431.539 130.645C433.084 132.811 435.211 134.115 437.268 135.365C439.05 136.444 440.736 137.472 441.584 138.825C442.44 140.218 442.741 142.405 443.058 144.724C443.421 147.349 443.791 150.055 445.045 152.416C446.315 154.786 448.257 156.403 450.138 157.96C451.78 159.323 453.324 160.615 453.996 162.1C454.674 163.617 454.701 165.834 454.719 168.184C454.745 170.829 454.771 173.575 455.716 176.109C456.661 178.652 458.356 180.574 460.006 182.437C461.454 184.074 462.831 185.621 463.299 187.228C463.766 188.835 463.492 191.022 463.192 193.342C462.866 195.966 462.522 198.673 463.104 201.358C463.687 204.023 465.091 206.221 466.45 208.347C467.659 210.239 468.806 212.029 469.054 213.708C469.292 215.367 468.709 217.472 468.091 219.7C467.394 222.234 466.671 224.847 466.873 227.605C467.068 230.33 468.136 232.762 469.177 235.102C470.113 237.208 470.986 239.192 470.986 240.911C470.986 242.63 470.113 244.625 469.177 246.72ZM260.969 372.306L257.34 368.44L257.287 368.379C255.592 366.518 254.313 365.155 253.324 364.147C253.289 364.117 253.263 364.087 253.227 364.046L250.12 360.739C248.063 358.552 245.08 358.206 242.688 359.874C240.296 361.533 239.174 364.747 239.899 367.861L241.47 374.595L242.07 377.189H189.567V362.865C189.567 347.881 178.992 335.693 165.991 335.693H153.651V317.087C153.651 315.541 152.565 314.289 151.232 314.289H145.662C145.91 313.485 146.174 312.682 146.457 311.888C147.772 308.225 148.434 304.361 148.434 300.404V283.374C154.948 290.027 163.069 294.655 172.028 296.384C174.588 296.883 177.227 297.137 179.919 297.137C193.327 297.137 205.959 290.698 214.971 279.386C221.759 287.89 230.833 293.923 241.063 296.161C243.95 296.802 246.933 297.137 249.987 297.137C267.261 297.137 282.409 286.476 290.75 270.555C294.457 263.464 296.823 255.326 297.405 246.618C297.423 246.638 297.432 246.648 297.449 246.669C300.133 249.731 301.351 251.095 301.934 251.725C301.183 254.492 300.777 257.432 300.777 260.474C300.777 261.928 301.801 263.119 303.073 263.119C304.335 263.119 305.368 261.928 305.368 260.474C305.368 257.422 305.862 254.492 306.771 251.806C309.79 242.803 317.381 236.405 326.243 236.405C337.763 236.405 347.128 247.198 347.128 260.474V283.424C347.128 296.7 337.763 307.494 326.243 307.494C324.222 307.494 322.271 307.158 320.418 306.538C311.731 303.628 305.368 294.371 305.368 283.424C305.368 281.969 304.335 280.779 303.073 280.779C301.801 280.779 300.777 281.969 300.777 283.424C300.777 295.886 307.557 306.568 317.081 310.809C316.851 325.836 312.235 340.455 304.035 352.123C295.728 363.934 284.112 372.255 271.322 375.562C267.642 376.507 263.767 375.287 260.969 372.306ZM92.9918 408.023H36.147C18.7493 408.023 4.59074 391.706 4.59074 371.655C4.59074 351.604 18.7493 335.296 36.147 335.296H40.9044H83.5917V337.036C73.0786 340.831 65.4433 352.143 65.4433 365.491C65.4433 381.92 77.0425 395.287 91.3058 395.287H105.597C104.785 402.469 99.4452 408.023 92.9918 408.023ZM33.896 319.833C33.1903 318.266 33.1723 316.029 33.1454 313.649C33.1194 311.024 33.0925 308.307 32.1741 305.815C31.2478 303.312 29.5618 301.41 27.9288 299.568C26.4544 297.911 25.0689 296.333 24.5838 294.686C24.0987 293.018 24.3802 290.8 24.6716 288.449C25.007 285.855 25.3424 283.17 24.7684 280.536C24.2045 277.91 22.81 275.734 21.4594 273.627C20.2326 271.705 19.0757 269.904 18.8202 268.165C18.5726 266.445 19.1635 264.31 19.7904 262.05C20.4792 259.548 21.1939 256.954 21.0002 254.238C20.8056 251.562 19.7465 249.162 18.7143 246.832C17.769 244.705 16.8776 242.692 16.8776 240.911C16.8776 239.13 17.769 237.127 18.7143 234.99C19.7465 232.67 20.8056 230.269 21.0002 227.584C21.1939 224.879 20.4792 222.284 19.7904 219.781C19.1635 217.512 18.5726 215.386 18.8202 213.668C19.0757 211.928 20.2326 210.117 21.4594 208.195C22.81 206.088 24.2045 203.912 24.7684 201.287C25.3424 198.662 25.007 195.977 24.6806 193.372C24.3802 191.022 24.0987 188.804 24.5838 187.147C25.0689 185.488 26.4634 183.922 27.9288 182.253C29.5618 180.412 31.2478 178.509 32.1741 176.007C33.1015 173.515 33.1194 170.798 33.1454 168.173C33.1723 165.793 33.1903 163.555 33.896 161.989C34.5938 160.441 36.164 159.14 37.824 157.756C39.6866 156.21 41.6112 154.612 42.8559 152.284C44.0907 149.974 44.462 147.278 44.8154 144.674C45.1328 142.334 45.4413 140.116 46.3337 138.682C47.2071 137.279 48.911 136.241 50.7108 135.142C52.7501 133.901 54.8604 132.618 56.3866 130.492C57.8789 128.387 58.5587 125.772 59.2115 123.24C59.8035 120.97 60.3594 118.824 61.4006 117.532C62.4247 116.27 64.2255 115.497 66.1321 114.674C68.2942 113.737 70.5362 112.771 72.284 110.869C74.0059 108.997 74.9592 106.485 75.8766 104.053C76.6971 101.885 77.4747 99.841 78.6486 98.7021C79.7875 97.593 81.6492 97.0638 83.6186 96.5151C85.8775 95.8731 88.2084 95.2128 90.1409 93.5435C92.0385 91.8961 93.2304 89.5251 94.3873 87.2265C95.4104 85.181 96.3817 83.2494 97.6524 82.2624C98.8882 81.3167 100.787 81.021 102.799 80.7162C105.103 80.3595 107.495 79.9937 109.569 78.5591C111.616 77.1555 113.021 74.9272 114.379 72.7805C115.58 70.8684 116.719 69.068 118.07 68.2431C119.384 67.4401 121.291 67.3688 123.321 67.2975C125.651 67.2158 128.062 67.1249 130.26 65.9445C132.422 64.7745 134.011 62.7095 135.547 60.7158C136.906 58.9557 138.187 57.2979 139.598 56.626C140.975 55.9749 142.873 56.1175 144.894 56.2602C147.224 56.4327 149.634 56.6157 151.921 55.67C154.172 54.7439 155.929 52.8514 157.623 51.0303C159.115 49.4231 160.518 47.908 161.983 47.3995C163.404 46.8899 165.285 47.2361 167.279 47.5928C169.592 48.0092 171.984 48.4372 174.333 47.7343C176.653 47.0429 178.552 45.3448 180.379 43.6963C181.986 42.2513 183.503 40.888 184.995 40.5222C186.452 40.1667 188.305 40.6948 190.265 41.2539C191.377 41.5702 192.507 41.8947 193.663 42.0787C193.883 43.1371 194.034 44.1438 193.91 44.8455C193.769 45.6796 193.036 46.83 192.33 47.9379C191.129 49.82 189.762 51.946 189.762 54.6116C189.762 57.2875 191.129 59.4135 192.33 61.2957C193.036 62.4047 193.769 63.5539 193.91 64.388C194.069 65.2831 193.769 66.7073 193.469 68.0912C192.992 70.3196 192.454 72.8518 193.319 75.2424C194.193 77.6836 196.143 79.0377 197.873 80.2376C198.906 80.9601 199.983 81.7032 200.407 82.4349C200.839 83.1781 201.024 84.6023 201.21 85.9852C190.759 88.4781 180.979 94.0325 172.84 102.221C161.568 113.554 154.181 129.15 152.044 146.118C152.036 146.19 152.027 146.261 152.027 146.322C141.593 152.181 134.39 164.521 134.39 178.753V182.955C134.39 192.264 137.444 201.063 143.014 207.788C136.35 217.218 132.36 229.232 132.36 242.315C132.36 255.662 136.517 267.921 143.429 277.432V300.404C143.429 303.608 142.89 306.731 141.831 309.691C141.284 311.197 140.808 312.743 140.393 314.289H124.681H86.0183C84.6777 314.289 83.5917 315.541 83.5917 317.087V330.007H43.0496C43.0056 329.843 42.9348 329.691 42.8559 329.538C41.6112 327.209 39.6866 325.612 37.824 324.066C36.164 322.682 34.5938 321.379 33.896 319.833ZM311.378 142.711H165.664C162.655 142.711 159.733 143.209 156.979 144.135C161.489 116.606 180.767 95.3141 204.344 90.695C207.477 90.075 210.69 89.7597 213.947 89.7597H260.147C263.087 89.7597 265.982 90.014 268.816 90.5225C292.569 94.7032 312.138 115.803 316.966 143.28C315.156 142.904 313.286 142.711 311.378 142.711ZM332.802 201.277C327.929 208.815 320.143 213.708 311.378 213.708H291.642C291.297 213.708 290.971 213.8 290.679 213.953C288.667 210.128 286.257 206.618 283.521 203.475C283.97 203.352 284.422 203.219 284.872 203.077C292.383 200.697 296.938 191.886 295.022 183.454C294.069 179.242 291.738 175.732 288.464 173.575C285.189 171.419 281.393 170.879 277.766 172.07C277.731 172.08 277.695 172.09 277.66 172.1V161.642C277.66 160.188 276.628 159.008 275.365 159.008C274.093 159.008 273.07 160.188 273.07 161.642V173.24C261.233 175.305 251.497 170.32 246.422 166.871C245.353 166.14 244.241 165.518 243.111 165.01V161.642C243.111 160.188 242.079 159.008 240.817 159.008C239.545 159.008 238.521 160.188 238.521 161.642V163.545C238.291 163.504 238.053 163.464 237.815 163.423C233.357 162.731 228.979 164.695 226.084 168.652C223.198 172.61 222.271 177.919 223.621 182.853C224.707 186.842 226.87 190.289 229.765 192.711C224.142 195.763 219.128 200.046 214.971 205.254C214.592 204.777 214.195 204.298 213.798 203.83C214.345 202.111 214.645 200.259 214.645 198.326C214.645 192.823 212.225 187.96 208.554 185.071V161.642C208.554 160.188 207.53 159.008 206.259 159.008C204.996 159.008 203.964 160.188 203.964 161.642V182.731C202.922 182.437 201.837 182.284 200.724 182.284H174.005V161.642C174.005 160.188 172.981 159.008 171.71 159.008C170.448 159.008 169.415 160.188 169.415 161.642V182.284H162.15C154.48 182.284 148.239 189.476 148.239 198.326C148.239 199.314 148.319 200.29 148.469 201.226C147.648 202.07 146.854 202.935 146.094 203.83C141.496 198.133 138.98 190.758 138.98 182.955V178.753C138.98 165.834 145.936 154.746 155.751 150.208C158.814 148.784 162.159 148.001 165.664 148.001H311.378C314.062 148.001 316.649 148.458 319.093 149.313C330.056 153.137 338.062 164.888 338.062 178.753V182.955C338.062 189.812 336.103 196.149 332.802 201.277ZM279.019 177.156C281.447 176.352 283.997 176.719 286.186 178.164C288.384 179.609 289.947 181.958 290.582 184.787C291.871 190.443 288.755 196.364 283.654 197.98C282.206 198.438 280.749 198.835 279.284 199.161C277.078 199.67 274.862 200.026 272.629 200.229C270.996 200.391 269.354 200.473 267.712 200.473C257.129 200.473 247.957 197.228 241.24 193.81C238.865 192.609 236.8 191.379 235.078 190.26C234.443 189.863 233.86 189.466 233.322 189.09C230.78 187.319 228.891 184.542 228 181.277C227.126 178.072 227.726 174.624 229.597 172.049C231.221 169.832 233.579 168.581 236.085 168.581C236.474 168.581 236.871 168.611 237.259 168.672C237.683 168.733 238.107 168.825 238.521 168.926C240.11 169.303 241.637 169.923 243.111 170.808C243.437 170.991 243.765 171.196 244.091 171.419C249.616 175.193 260.165 180.584 273.07 178.58L279.019 177.156ZM203.964 188.245C205.862 189.059 207.468 190.554 208.554 192.487C209.507 194.165 210.054 196.18 210.054 198.326C210.054 198.825 210.028 199.324 209.966 199.812C209.737 201.714 209.075 203.454 208.095 204.898C206.392 207.431 203.717 209.069 200.724 209.069H162.15C158.479 209.069 155.293 206.607 153.774 203.036C153.165 201.612 152.821 200.015 152.821 198.326C152.821 197.97 152.838 197.614 152.865 197.258C153.332 191.826 157.322 187.573 162.15 187.573H169.415H174.005H177.474H182.347L203.964 188.245ZM160.871 282.712C161.286 284.594 162.001 286.313 162.945 287.819C157.137 284.941 151.992 280.616 147.842 275.245C146.924 274.055 146.05 272.824 145.239 271.532H162.133C160.553 274.9 160.015 278.836 160.871 282.712ZM148.804 335.551H127.098V319.874H148.804V335.551ZM88.438 319.874H122.253V335.551H88.438V319.874ZM88.8083 341.136H103.496C96.8588 346.518 92.5156 355.429 92.5156 365.491C92.5156 375.654 96.9556 384.636 103.708 390.008H91.3058C79.5749 390.008 70.0331 379 70.0331 365.48C70.0331 352.937 78.2513 342.56 88.8083 341.136ZM184.977 380.078V390.008C184.977 396.304 180.908 401.747 175.523 402.662C175.515 402.662 175.506 402.662 175.497 402.673C176.38 399.59 176.901 395.734 176.901 390.933V367.108C176.901 358.643 172.293 350.932 165.434 347.911C164.252 347.392 162.928 348.074 162.478 349.437C162.019 350.801 162.619 352.337 163.801 352.855C168.894 355.093 172.311 360.821 172.311 367.108V390.933C172.311 397.678 171.181 401.9 169.636 404.534C167.059 408.929 163.316 408.929 161.674 408.929H154.895C159.397 404.646 162.266 398.176 162.266 390.953V378.948C162.266 371.614 157.092 365.653 150.729 365.653C149.458 365.653 148.434 366.833 148.434 368.298C148.434 369.753 149.458 370.943 150.729 370.943C154.56 370.943 157.675 374.534 157.675 378.948V390.953C157.675 400.261 151.524 407.933 143.659 408.859C143.129 408.918 142.6 408.95 142.061 408.95H127.081C123.886 408.95 121.282 405.948 121.282 402.265C121.282 398.583 123.886 395.581 127.081 395.581C127.461 395.581 127.823 395.47 128.141 395.287H140.719C141.982 395.287 143.014 394.107 143.014 392.652V385.002C143.014 383.538 141.982 382.357 140.719 382.357C139.448 382.357 138.424 383.538 138.424 385.002V390.008H118.378C106.647 390.008 97.1054 379 97.1054 365.48C97.1054 352.937 105.315 342.57 115.872 341.136H151.232C151.506 341.136 151.77 341.085 152.018 340.984H165.991C176.46 340.984 184.977 350.801 184.977 362.865V380.078ZM189.567 383.798V382.968C189.567 382.968 189.579 383.273 189.567 383.798ZM166.705 260.281L172.346 266.252H164.499L155.16 256.384C154.224 255.397 152.767 255.469 151.912 256.547C151.055 257.625 151.117 259.294 152.054 260.281L157.702 266.252H142.361H142.308C138.883 259.151 136.942 250.992 136.942 242.315C136.942 228.276 142.044 215.569 150.226 206.546C152.645 211.225 157.085 214.359 162.15 214.359H200.724C205.014 214.359 208.845 212.121 211.405 208.601C211.608 208.855 211.811 209.111 212.006 209.364C205.986 218.541 202.419 229.954 202.419 242.315C202.419 250.89 204.141 259.019 207.194 266.252H193.787L184.447 256.384C183.512 255.397 182.065 255.469 181.208 256.547C180.352 257.625 180.414 259.294 181.35 260.281L186.999 266.252H179.143L169.804 256.384C168.868 255.397 167.421 255.469 166.564 256.547C165.708 257.625 165.77 259.294 166.705 260.281ZM181.569 285.54L180.528 284.431C178.146 281.918 179.143 277.361 182.267 276.446L184.227 275.876C186.071 275.326 187.21 273.486 187.29 271.532H192.277H209.755C210.452 272.814 211.202 274.065 212.006 275.276C204.335 285.204 193.61 291.125 182.109 291.787C183.274 289.955 183.177 287.239 181.569 285.54ZM230.523 282.712C230.913 284.472 231.557 286.09 232.413 287.524C226.331 284.371 221 279.639 216.807 273.78C216.286 273.047 215.783 272.295 215.307 271.532H231.786C230.207 274.9 229.668 278.836 230.523 282.712ZM264.367 266.252L255.027 256.384C254.101 255.397 252.645 255.469 251.788 256.547C250.932 257.625 250.994 259.294 251.929 260.281L257.579 266.252H249.723L240.384 256.384C239.448 255.397 238.001 255.469 237.145 256.547C236.288 257.625 236.35 259.294 237.285 260.281L242.935 266.252H235.078L225.74 256.384C224.805 255.397 223.356 255.469 222.501 256.547C221.644 257.625 221.706 259.294 222.642 260.281L228.291 266.252H212.376C208.951 259.151 207.009 250.992 207.009 242.315C207.009 230.473 210.637 219.589 216.674 211.054C221.397 204.389 227.585 199.161 234.673 196.028C241.938 200.433 253.642 205.763 267.712 205.763C271.154 205.763 274.606 205.437 278.013 204.796C284.668 211.399 289.549 220.32 291.712 230.452C292.533 234.258 292.966 238.225 292.966 242.315C292.966 250.992 291.024 259.151 287.599 266.252H264.367ZM251.223 285.54L250.181 284.431C247.798 281.918 248.796 277.361 251.921 276.446L253.88 275.876C255.725 275.326 256.864 273.486 256.943 271.532H262.866H284.668C277.175 283.332 265.249 291.186 251.744 291.817C252.936 289.985 252.847 287.249 251.223 285.54ZM196.028 51.0717C196.982 49.5658 198.077 47.8666 198.412 45.8729C198.766 43.8182 198.323 41.7221 197.926 39.8814C197.847 39.5247 197.776 39.1589 197.696 38.8023C197.485 37.6841 197.344 36.605 197.556 36.0056C197.855 35.1819 199.065 34.3375 200.239 33.5229C201.642 32.5462 203.223 31.4476 204.22 29.7392C205.217 28.0193 205.5 25.8932 205.747 24.0215C205.942 22.5466 206.171 20.8681 206.709 20.2469C207.247 19.6268 208.705 19.3622 209.983 19.1379C211.608 18.8537 213.453 18.5281 214.944 17.3777C216.428 16.2284 217.381 14.4073 218.229 12.7909C218.934 11.4369 219.667 10.0437 220.382 9.69739C221.07 9.36261 222.492 9.76874 223.745 10.1254C225.343 10.5833 227.161 11.0917 228.944 10.6845C230.674 10.2979 232.149 9.03589 233.455 7.93723C234.567 6.9812 235.723 6.00449 236.527 6.00449C237.338 6.00449 238.486 6.9812 239.607 7.93723C240.914 9.03589 242.387 10.2979 244.118 10.6845C245.901 11.0917 247.711 10.5833 249.317 10.1254C250.57 9.76874 251.991 9.36261 252.671 9.69739C253.395 10.0437 254.127 11.4369 254.834 12.7909C255.681 14.4073 256.634 16.2284 258.117 17.3777C259.609 18.5281 261.454 18.8537 263.069 19.1379C264.358 19.3622 265.814 19.6268 266.353 20.2469C266.891 20.8681 267.112 22.5466 267.314 24.0215C267.562 25.8932 267.844 28.0193 268.842 29.7392C269.83 31.4476 271.419 32.5462 272.814 33.5229C273.706 34.1327 274.606 34.7643 275.126 35.3843C275.295 35.5983 275.436 35.802 275.506 36.0056C275.789 36.7982 275.444 38.4365 275.135 39.8814C274.738 41.7221 274.288 43.8182 274.641 45.8729C274.986 47.8666 276.071 49.5658 277.033 51.0717C277.854 52.3533 278.71 53.6855 278.71 54.6116C278.71 55.5481 277.854 56.8803 277.033 58.1619C276.071 59.6678 274.986 61.3669 274.641 63.3607C274.288 65.4153 274.738 67.5011 275.135 69.3521C275.444 70.7971 275.789 72.4353 275.506 73.2188C275.206 74.0528 273.987 74.8972 272.814 75.7106C271.419 76.6873 269.83 77.786 268.842 79.4955C267.888 81.1326 267.588 83.147 267.35 84.9474C264.975 84.6322 262.566 84.47 260.147 84.47H213.947C211.184 84.47 208.439 84.6829 205.729 85.1005C205.49 83.269 205.2 81.1833 204.22 79.4955C203.223 77.786 201.642 76.677 200.239 75.7106C199.065 74.8972 197.855 74.0528 197.556 73.2188C197.264 72.4353 197.618 70.7971 197.926 69.3521C198.323 67.5011 198.766 65.4153 198.412 63.3607C198.077 61.3669 196.982 59.6678 196.028 58.1619C195.199 56.8699 194.351 55.5481 194.351 54.6116C194.351 53.6855 195.199 52.3533 196.028 51.0717ZM471.86 254.696C471.975 253.098 472.788 251.278 473.644 249.345C474.747 246.852 476 244.024 476 240.911C476 237.808 474.747 234.979 473.644 232.477C472.788 230.544 471.975 228.723 471.86 227.137C471.746 225.509 472.294 223.536 472.867 221.45C473.634 218.673 474.429 215.794 473.988 212.762C473.555 209.71 471.922 207.168 470.484 204.918C469.363 203.169 468.304 201.511 467.959 199.954C467.623 198.377 467.88 196.343 468.153 194.176C468.497 191.419 468.895 188.296 468.038 185.376C467.191 182.467 465.231 180.259 463.51 178.317C462.151 176.78 460.871 175.335 460.323 173.839C459.768 172.365 459.75 170.299 459.732 168.113C459.706 165.335 459.67 162.172 458.444 159.445C457.226 156.729 455.108 154.979 453.059 153.28C451.515 151.998 450.059 150.778 449.308 149.385C448.584 148.021 448.302 145.976 448.01 143.82C447.631 141.083 447.207 137.97 445.654 135.467C444.117 132.994 441.822 131.601 439.606 130.259C437.913 129.221 436.314 128.254 435.405 126.982C434.523 125.742 434.012 123.759 433.472 121.663C432.784 119.007 432.007 115.997 430.188 113.758C428.397 111.55 425.979 110.512 423.639 109.506C421.838 108.722 420.134 107.99 419.093 106.861C418.087 105.752 417.363 103.859 416.604 101.845C415.643 99.3118 414.557 96.4438 412.526 94.4696C410.532 92.5369 408.024 91.8248 405.606 91.1437C403.734 90.6145 401.969 90.1164 400.821 89.119C399.709 88.1526 398.809 86.3613 397.848 84.4597C396.656 82.0691 395.296 79.3633 393.098 77.6744C390.936 76.0051 388.385 75.6094 385.922 75.2332C384.006 74.9375 382.206 74.6625 380.97 73.8181C379.769 72.984 378.71 71.3056 377.589 69.5258C376.186 67.3078 374.588 64.7849 372.258 63.3607C369.963 61.956 367.394 61.8651 364.914 61.7731C362.98 61.7029 361.163 61.6316 359.856 60.9286C358.594 60.2476 357.393 58.6911 356.123 57.0425C354.542 54.9878 352.742 52.6685 350.305 51.5089C347.904 50.3699 345.354 50.5632 342.882 50.7461C340.949 50.8888 339.121 51.0211 337.771 50.4608C336.456 49.9224 335.131 48.4982 333.729 46.9922C331.989 45.1205 330.022 42.9945 327.505 42.1098C325.033 41.2343 322.501 41.6819 320.055 42.1294C318.14 42.4653 316.339 42.7909 314.945 42.3733C313.585 41.9763 312.165 40.6948 310.646 39.3315C308.775 37.653 306.648 35.741 304.078 35.1105C301.546 34.4893 299.065 35.2014 296.665 35.8825C294.784 36.4117 293.01 36.9202 291.589 36.6464C290.203 36.3818 288.685 35.2417 287.078 34.0418C285.083 32.5462 282.832 30.8574 280.228 30.4915C279.478 30.3799 278.71 30.3799 277.872 30.4915C277.687 30.5111 277.519 30.5629 277.351 30.6238C276.653 30.0038 275.903 29.4838 275.188 28.9856C274.147 28.2735 273.079 27.5315 272.655 26.7986C272.222 26.0555 272.029 24.6117 271.843 23.2277C271.543 20.9395 271.198 18.3556 269.601 16.5034C267.995 14.6627 265.752 14.2658 263.767 13.9091C262.557 13.6952 261.312 13.4823 260.668 12.9842C260.032 12.4952 259.388 11.2539 258.762 10.0644C257.72 8.07068 256.546 5.82159 254.427 4.81494C252.353 3.81754 250.155 4.43759 248.222 4.98752C247.022 5.3338 245.786 5.67896 245.009 5.49603C244.286 5.3338 243.288 4.48938 242.326 3.67487C240.692 2.29205 238.847 0.714813 236.527 0.714813C234.214 0.714813 232.36 2.29205 230.736 3.67487C229.774 4.48938 228.777 5.3338 228.053 5.49603C227.267 5.67896 226.032 5.3338 224.84 4.98752C222.906 4.43759 220.708 3.81754 218.626 4.81494C216.516 5.82159 215.333 8.07068 214.292 10.0644C213.674 11.2539 213.029 12.4952 212.394 12.9842C211.749 13.4823 210.496 13.6952 209.296 13.9091C207.309 14.2658 205.067 14.6627 203.461 16.5034C201.863 18.3556 201.519 20.9395 201.21 23.2277C201.024 24.6117 200.839 26.0463 200.407 26.7986C199.983 27.5315 198.906 28.2735 197.873 28.9856C196.143 30.1867 194.193 31.5488 193.319 33.9808C193.019 34.8252 192.886 35.68 192.868 36.5244C192.383 36.4025 191.871 36.2598 191.359 36.1172C188.985 35.435 186.531 34.7436 184.042 35.3544C181.518 35.9642 179.505 37.775 177.563 39.5248C176.026 40.8984 174.588 42.1903 173.185 42.6172C171.754 43.0451 169.927 42.7092 167.986 42.3629C165.567 41.9258 163.061 41.4782 160.632 42.3434C158.162 43.2177 156.299 45.2217 154.489 47.1648C153.077 48.6914 151.735 50.1352 150.376 50.6955C148.981 51.265 147.136 51.1327 145.186 50.99C142.74 50.8071 140.207 50.6242 137.85 51.7332C135.458 52.8721 133.763 55.0695 132.113 57.2058C130.833 58.874 129.615 60.4512 128.309 61.153C126.967 61.8755 125.122 61.9364 123.172 62.0078C120.718 62.0986 118.175 62.201 115.925 63.5746C113.63 64.9678 112.129 67.3584 110.664 69.6685C109.533 71.4689 108.457 73.167 107.221 74.0218C105.95 74.8869 104.123 75.1711 102.19 75.4667C99.7446 75.8429 97.2292 76.2295 95.102 77.8677C92.9389 79.5358 91.6592 82.099 90.4144 84.5816C89.4521 86.504 88.5348 88.3148 87.3869 89.3122C86.204 90.3292 84.4212 90.8377 82.5236 91.3772C80.1309 92.0491 77.6514 92.7509 75.6919 94.6526C73.6965 96.5864 72.6723 99.3118 71.6751 101.937C70.8985 103.971 70.1748 105.893 69.1327 107.034C68.0656 108.193 66.3437 108.935 64.526 109.72C62.2041 110.726 59.8035 111.754 58.0556 113.92C56.2638 116.119 55.5302 118.976 54.8164 121.734C54.2684 123.849 53.7473 125.854 52.839 127.135C51.9027 128.437 50.2876 129.424 48.5756 130.462C46.3766 131.805 44.0997 133.178 42.5994 135.6C41.0721 138.061 40.6749 141.001 40.2866 143.86C39.9871 146.037 39.7036 148.102 38.9539 149.507C38.1853 150.941 36.703 152.171 35.1408 153.473C33.1195 155.152 31.0272 156.891 29.8264 159.548C28.6175 162.233 28.5916 165.224 28.5646 168.113C28.5377 170.32 28.5207 172.406 27.9557 173.931C27.3817 175.467 26.0931 176.933 24.7156 178.479C22.9238 180.503 21.0791 182.589 20.2406 185.447C19.4021 188.316 19.7734 191.277 20.1348 194.135C20.4173 196.322 20.6728 198.387 20.3205 200.005C19.9761 201.612 18.899 203.291 17.769 205.061C16.2687 207.391 14.7235 209.811 14.2913 212.804C13.868 215.774 14.6537 218.621 15.4123 221.379C15.9952 223.484 16.5423 225.479 16.4275 227.158C16.3127 228.795 15.4921 230.636 14.6267 232.589C13.4787 235.184 12.2879 237.859 12.2879 240.911C12.2879 243.963 13.4787 246.648 14.6267 249.232C15.4921 251.186 16.3127 253.038 16.4275 254.675C16.5423 256.343 15.9952 258.338 15.4123 260.443C14.6537 263.2 13.868 266.048 14.2913 269.018C14.7235 272.02 16.2687 274.431 17.769 276.771C18.899 278.541 19.9761 280.209 20.3205 281.817C20.6728 283.435 20.4083 285.5 20.1348 287.687C19.7734 290.545 19.4021 293.506 20.2406 296.375C21.0701 299.232 22.9238 301.318 24.7156 303.343C26.0841 304.889 27.3817 306.354 27.9557 307.891C28.5207 309.416 28.5377 311.502 28.5556 313.709C28.5826 316.598 28.6175 319.589 29.8264 322.275C31.0182 324.93 33.1195 326.67 35.1408 328.349C35.8116 328.908 36.4644 329.457 37.0563 330.007H36.147C16.2158 330.007 0 348.694 0 371.655C0 394.625 16.2158 413.314 36.147 413.314H92.9918C97.856 413.314 102.269 410.985 105.411 407.24C105.42 407.25 105.42 407.25 105.429 407.25C106.118 407.454 106.665 407.708 107.106 408.013C108.315 408.837 109.375 410.516 110.496 412.296C111.9 414.525 113.488 417.047 115.819 418.472C118.123 419.865 120.682 419.967 123.163 420.058C124.396 420.104 125.584 420.147 126.621 420.354L129.964 422.339C130.624 423.048 131.284 423.898 131.963 424.778C133.543 426.834 135.335 429.163 137.771 430.313C140.172 431.452 142.731 431.269 145.203 431.086C147.127 430.944 148.955 430.811 150.306 431.361C151.629 431.91 152.945 433.334 154.347 434.84C156.087 436.712 158.055 438.828 160.571 439.712C163.052 440.598 165.576 440.14 168.021 439.703C169.936 439.357 171.746 439.031 173.132 439.448C174.491 439.855 175.921 441.138 177.431 442.491C179.302 444.179 181.429 446.081 183.998 446.711C186.531 447.333 189.011 446.631 191.412 445.949C193.292 445.409 195.075 444.901 196.488 445.176C197.116 445.464 197.732 445.718 198.346 445.949C199.197 446.442 200.082 447.1 200.998 447.791C202.993 449.276 205.253 450.965 207.856 451.341C210.426 451.707 212.844 450.761 215.183 449.845C217.019 449.133 218.75 448.452 220.179 448.583C221.583 448.717 223.181 449.703 224.867 450.751C226.958 452.043 229.333 453.507 231.954 453.63C234.531 453.751 236.88 452.582 239.139 451.442C240.922 450.557 242.6 449.713 244.038 449.713C245.477 449.713 247.163 450.557 248.937 451.442C251.09 452.521 253.315 453.639 255.751 453.639C255.875 453.639 255.999 453.639 256.122 453.63C256.66 453.609 257.225 453.497 257.861 453.294C260.527 452.429 262.716 450.395 264.04 447.556C265.382 444.667 265.646 441.218 264.764 438.096L246.289 372.784C246.245 372.631 246.192 372.489 246.13 372.347L244.736 366.355C244.532 365.48 244.991 365.012 245.274 364.808C245.565 364.615 246.139 364.361 246.721 364.981L247.543 365.856C247.78 366.355 248.143 366.752 248.566 367.016C248.725 367.159 248.972 367.403 249.281 367.718C249.44 367.881 249.616 368.064 249.811 368.268L250.799 369.325C251.099 369.641 251.418 369.976 251.753 370.343C259.38 378.634 279.178 401.055 306.542 432.418C310.982 437.515 316.904 440.353 322.986 440.353C323.48 440.353 323.983 440.333 324.479 440.292C325.686 440.201 326.685 440.008 327.505 439.712C330.022 438.828 331.998 436.712 333.737 434.84C335.131 433.334 336.456 431.91 337.771 431.361C339.13 430.801 340.949 430.944 342.882 431.086C345.354 431.259 347.904 431.452 350.305 430.313C351.665 429.671 352.823 428.658 353.859 427.534C354.596 426.873 355.344 425.983 356.123 424.778C357.393 423.131 358.594 421.574 359.856 420.892C361.163 420.19 362.98 420.129 364.914 420.058C367.394 419.967 369.954 419.875 372.258 418.472C374.588 417.047 376.178 414.525 377.58 412.296C378.701 410.527 379.76 408.837 380.97 408.013C382.197 407.169 384.006 406.894 385.922 406.599C388.385 406.223 390.927 405.826 393.098 404.158C395.296 402.459 396.656 399.753 397.848 397.373C398.801 395.47 399.7 393.669 400.821 392.703C401.969 391.716 403.734 391.218 405.606 390.689C408.024 390.008 410.523 389.295 412.526 387.352C414.557 385.389 415.643 382.519 416.604 379.986C417.363 377.973 418.078 376.08 419.093 374.971C420.134 373.843 421.829 373.11 423.63 372.327C425.969 371.32 428.397 370.281 430.18 368.075C431.998 365.836 432.775 362.825 433.464 360.17C434.012 358.074 434.523 356.09 435.405 354.849C436.305 353.578 437.913 352.61 439.606 351.574C441.822 350.231 444.117 348.837 445.654 346.365C447.207 343.862 447.631 340.749 448.001 338.012C448.302 335.846 448.575 333.811 449.308 332.448C449.458 332.164 449.643 331.878 449.855 331.603C450.659 330.546 451.832 329.569 453.059 328.551C455.108 326.853 457.217 325.103 458.444 322.387C459.67 319.661 459.706 316.497 459.732 313.72C459.75 311.532 459.768 309.477 460.315 307.992C460.871 306.496 462.151 305.052 463.51 303.515C465.231 301.574 467.191 299.366 468.038 296.455C468.895 293.537 468.497 290.413 468.153 287.656C467.88 285.489 467.615 283.455 467.959 281.878C468.304 280.322 469.363 278.664 470.484 276.914C471.922 274.665 473.555 272.112 473.988 269.07C474.429 266.038 473.634 263.159 472.867 260.372C472.294 258.286 471.746 256.323 471.86 254.696Z" fill="#603DBD"/>
</svg>
