<svg width="118" height="40" viewBox="0 0 118 40" fill="none" xmlns="http://www.w3.org/2000/svg">
<path fill-rule="evenodd" clip-rule="evenodd" d="M59.5132 16.3559C59.1482 15.0634 59.0726 13.7994 59.2865 12.5641C59.1707 12.5449 59.0467 12.5354 58.9144 12.5356C58.7821 12.5165 58.6663 12.507 58.5671 12.5071C58.4679 12.4879 58.3521 12.4688 58.2198 12.4496C58.104 12.4305 57.9965 12.421 57.8973 12.4211C57.3195 13.4446 57.0063 14.5739 56.9578 15.8091C56.9581 16.0599 56.9501 16.4073 56.934 16.8512C56.9178 17.2951 56.9098 17.6038 56.91 17.7775C56.8778 18.7425 56.7545 19.5242 56.5401 20.1227C56.4411 20.393 56.342 20.5572 56.2428 20.6152C56.1437 20.6925 55.9784 20.712 55.7468 20.6737C55.6641 20.6545 55.0687 20.5201 53.9606 20.2706C53.9765 19.6145 53.976 19.0259 53.959 18.5048C53.9585 17.9645 53.9662 17.3759 53.9822 16.739C53.9981 16.1022 54.0472 15.5328 54.1295 15.031C54.1788 14.7221 54.3601 14.1044 54.6735 13.1777C54.7064 13.0618 54.7477 12.9364 54.7971 12.8012C54.8466 12.6661 54.8879 12.5502 54.9209 12.4537C54.9704 12.3571 55.0199 12.2413 55.0694 12.1061C55.1189 11.971 55.1601 11.8551 55.1931 11.7586C55.6053 10.5037 55.5877 9.26867 55.1401 8.05344C54.8086 7.12754 54.593 6.51991 54.4936 6.23056C54.2945 5.57467 54.1864 4.83182 54.1691 4.00203C54.1518 3.15293 54.1842 2.39061 54.2662 1.71507L54.266 1.45455C54.2824 1.33874 54.2989 1.26153 54.3154 1.22291C54.3316 0.856228 54.381 0.62459 54.4636 0.527998C54.5462 0.431404 54.7363 0.344329 55.0339 0.266771C56.6044 -0.159721 58.192 -0.0748326 59.7965 0.521436C60.9379 0.944589 61.691 1.77348 62.0559 3.00811C62.935 5.94035 63.3911 7.44504 63.4242 7.5222C63.7892 8.87262 63.5091 9.93436 62.5838 10.7074C61.9889 11.2099 61.6671 11.905 61.6183 12.7928C61.5531 13.8157 61.645 14.9542 61.8942 16.2082L62.5918 19.6232C62.625 19.7196 62.6416 19.8064 62.6417 19.8836C62.6916 20.2695 62.667 20.5204 62.5679 20.6363C62.4854 20.7522 62.2787 20.8104 61.948 20.8108C61.4354 20.7921 61.0798 20.7733 60.8814 20.7542C60.6002 20.7159 60.41 20.6486 60.3107 20.5523C60.2279 20.4559 60.1616 20.2533 60.1117 19.9446C60.0619 19.6938 59.8707 18.5941 59.5382 16.6453C59.5382 16.6261 59.5299 16.5875 59.5133 16.5296L59.5132 16.3559ZM58.4593 3.04149C58.4097 3.04155 57.9963 3.00346 57.219 2.92723C57.153 3.0431 57.12 3.11068 57.12 3.12998C57.0217 4.1336 57.0389 4.87656 57.1716 5.35885C57.2214 5.59037 57.6112 6.89251 58.3409 9.26528C58.837 9.20678 59.1098 9.1775 59.1594 9.17743C59.7546 9.09951 60.1348 8.92536 60.2999 8.65498C60.465 8.36531 60.4563 7.81532 60.2736 7.00502C60.1409 6.54203 59.9251 5.64493 59.6263 4.31373C59.4603 3.5806 59.0713 3.15652 58.4593 3.04149ZM42.838 12.8778C42.8041 13.2737 42.7874 13.5399 42.7878 13.6763C42.695 14.6674 42.6519 15.455 42.6583 16.039C42.7101 17.649 43.2448 18.9131 44.2626 19.8313C45.0341 20.5185 45.9802 20.9321 47.1008 21.072C47.4564 21.1087 47.8209 21.0171 48.1944 20.7972C49.0511 20.2996 49.6793 19.6461 50.0791 18.8366C50.4952 18.0242 50.6618 17.0888 50.579 16.0302C50.4738 14.5269 50.549 13.1292 50.8046 11.8372C51.0418 10.6654 51.0608 9.61868 50.8615 8.69705C50.4821 7.00655 49.9002 5.23367 49.1157 3.37839C48.6447 2.2887 47.741 1.6143 46.4049 1.3552C45.944 1.27799 45.4893 1.31675 45.0407 1.47147C44.3001 1.69566 43.5743 2.17086 42.8633 2.89709C42.418 3.34382 42.1321 3.92907 42.0058 4.65284C41.8519 5.55684 41.9368 6.56629 42.2607 7.68116C42.2914 7.79293 42.5174 8.66122 42.9387 10.286C42.9723 10.5534 42.9849 10.8535 42.9766 11.1865C42.9659 11.5004 42.9479 11.757 42.9228 11.9564C42.9141 12.1529 42.8858 12.4601 42.838 12.8778ZM45.6091 13.9838C45.6294 13.7462 45.6439 13.5292 45.6527 13.3327C45.8854 11.4595 45.7203 9.47878 45.1573 7.39059C45.0271 6.88624 44.9412 6.3353 44.8996 5.73779C44.8767 5.15657 45.072 4.78185 45.4854 4.61362C45.7237 4.51437 45.9108 4.54088 46.0469 4.69314C46.3403 5.03305 46.5 5.2398 46.5259 5.31337C47.1834 6.95631 47.5869 8.10632 47.7363 8.76343C47.9663 9.79682 48.0226 10.977 47.9051 12.3038C47.8736 12.7188 47.8388 13.1734 47.8005 13.6675C47.7623 14.1617 47.7195 14.6858 47.6721 15.2401C47.6387 15.7724 47.6026 16.2174 47.564 16.5751C47.5369 16.8918 47.4968 17.1717 47.4438 17.4148C47.3584 17.8 47.151 18.011 46.8213 18.0479C46.459 18.0903 46.2199 17.9167 46.1041 17.5269C46.0594 17.437 45.8905 16.8905 45.5974 15.8874C45.6086 15.71 45.6068 15.4957 45.592 15.2447C45.5935 14.9909 45.5917 14.7767 45.5865 14.602C45.5952 14.4055 45.6028 14.1994 45.6091 13.9838ZM32.4378 12.2511C32.5188 12.3636 33.0542 13.0615 34.0439 14.3449L36.7264 13.3965C36.267 12.6918 36.0143 12.3174 35.9682 12.2732C35.9635 12.2547 35.6657 11.9063 35.0749 11.228C34.5302 10.5938 34.1588 9.92865 33.9607 9.23241C33.4818 7.58698 33.1895 6.5611 33.084 6.15478C32.9977 5.82233 32.9877 5.58391 33.0539 5.43953C33.1201 5.29514 33.298 5.18182 33.5876 5.09957C34.0308 4.9429 34.4154 4.82708 34.7415 4.75211C34.9726 4.71071 35.1421 4.73143 35.25 4.81427C35.3738 4.89151 35.4668 5.05018 35.5291 5.29028C35.7607 6.1158 35.935 6.82042 36.052 7.40416C36.3722 8.90407 37.0212 10.1063 37.999 11.0108C38.0498 11.0734 38.1237 11.1582 38.2205 11.2651C38.3174 11.372 38.3761 11.4319 38.3968 11.4448C39.3669 12.4528 39.7555 13.7168 39.5626 15.2369C39.4801 15.8508 39.3918 16.376 39.2978 16.8126C39.0863 17.7948 39.0975 18.8696 39.3314 20.0371C39.5846 21.2784 39.7289 22.034 39.7644 22.3037C39.8109 22.5494 39.8248 22.736 39.8061 22.8637C39.7984 22.9672 39.7542 23.0634 39.6737 23.1524C39.6041 23.2173 39.4713 23.3046 39.2752 23.4143C38.9049 23.5855 38.6011 23.7131 38.3637 23.7971C37.8842 23.9465 37.5741 23.7838 37.4337 23.3092C37.2404 22.6315 37.0592 21.9999 36.8899 21.4145C36.7317 20.805 36.6296 20.1454 36.5836 19.4358C36.5376 18.7261 36.5875 18.0531 36.7333 17.4168C36.7506 17.3502 36.8538 16.7491 37.0428 15.6136C36.4634 15.7781 36.15 15.8687 36.1026 15.8855L35.3429 16.1541L34.7257 16.3723C34.4725 16.4619 34.3241 16.6555 34.2804 16.9532C34.2526 17.2454 34.1643 17.7706 34.0156 18.5289C33.806 19.6516 33.8419 20.7883 34.1234 21.939C34.3295 22.7331 34.465 23.4212 34.5297 24.0033C34.5714 24.2305 34.5853 24.4172 34.5714 24.5632C34.5574 24.7093 34.5229 24.8425 34.4678 24.9628C34.4078 25.0647 34.3193 25.1565 34.2023 25.2382C34.0805 25.3014 33.9246 25.3666 33.7347 25.4337C33.5132 25.5121 33.1633 25.5954 32.6852 25.6838C32.3433 25.7644 32.1165 25.6228 32.0047 25.259C31.9554 25.1353 31.8549 24.8482 31.7034 24.3976C31.5519 23.9471 31.4497 23.6203 31.397 23.4171C31.3395 23.1955 31.2731 22.9064 31.1978 22.5499C31.1177 22.1749 31.071 21.8285 31.0576 21.5106C31.0442 21.1927 31.0624 20.8636 31.1123 20.5234C31.1325 20.3348 31.2176 19.8308 31.3677 19.0114C31.3898 18.9633 31.4385 18.7848 31.5138 18.4759C31.969 16.7018 31.6171 15.2131 30.4581 14.0097C30.2183 13.7517 29.9229 13.4125 29.5719 12.9922C29.008 12.2842 28.6409 11.436 28.4707 10.4476C28.429 10.2204 28.3801 9.96544 28.324 9.68281C28.2838 9.39458 28.2332 9.09991 28.1723 8.79881C28.1114 8.49771 28.0625 8.24278 28.0256 8.03402C27.9565 7.63498 27.9496 7.3753 28.0048 7.25498C28.0757 7.12906 28.275 6.99811 28.6026 6.86214L29.647 6.49284C29.8576 6.43857 30.0278 6.42879 30.1578 6.46349C30.3036 6.49261 30.4194 6.57265 30.5052 6.70361C30.6021 6.81052 30.6817 6.98402 30.744 7.22412C30.8639 7.68584 30.9784 8.26034 31.0877 8.94762C31.3126 10.2796 31.7626 11.3808 32.4378 12.2511ZM20.2161 28.1106C21.5052 29.7358 22.2169 30.6256 22.3513 30.7799C22.821 31.3763 23.3548 31.4491 23.9526 30.9983C24.0098 30.9594 24.0628 30.9123 24.1116 30.8568C24.1831 30.8082 24.2504 30.7513 24.3135 30.6861L24.5065 30.555C24.6839 30.4121 24.7774 30.2928 24.787 30.1969C24.8109 30.0914 24.7545 29.9399 24.6178 29.7425C24.3812 29.345 24.0994 28.9335 23.7724 28.5081C22.6999 27.0484 22.0074 25.833 21.6951 24.8616C21.0942 23.0816 20.0396 21.5427 18.5313 20.2451C17.0931 19.0115 15.8712 17.5975 14.8654 16.0032C14.6621 15.6724 14.4742 15.4874 14.3016 15.4483C14.1207 15.3926 13.8916 15.4701 13.6141 15.681C13.3997 15.8266 13.1121 16.0555 12.7512 16.3677C12.4046 16.6702 12.1812 16.8554 12.0812 16.9234C11.7977 17.1606 11.7118 17.487 11.8234 17.9024C12.1118 18.9793 12.3177 19.8331 12.441 20.4639C12.6995 21.6727 13.0921 22.824 13.6185 23.9177C14.3197 25.3617 14.8707 27.0417 15.2716 28.9577C15.5408 30.2263 15.8351 31.4108 16.1545 32.5113C16.316 33.0268 16.6272 33.8426 17.0882 34.9585C17.1904 35.2017 17.2867 35.3372 17.3771 35.3651C17.4902 35.4 17.6509 35.3578 17.8593 35.2385C18.1106 35.0901 18.3565 34.9119 18.5971 34.7038C18.8889 34.4832 18.9933 34.1555 18.9103 33.7206C18.8759 33.4983 18.8273 33.2857 18.7644 33.0828C18.4177 31.8892 18.1636 31.0347 18.0021 30.5191C17.8929 30.1468 17.9485 29.8745 18.1688 29.7025C18.2974 29.6151 18.9799 29.0845 20.2161 28.1106ZM15.2601 20.5918C16.8337 22.1354 17.6877 22.9843 17.822 23.1386C18.2621 23.5989 18.7251 24.412 19.211 25.5779C19.0991 25.6987 18.9585 25.8388 18.7894 25.9984C18.6345 26.1483 18.494 26.2884 18.3677 26.4189C18.2557 26.5396 18.1193 26.6881 17.9585 26.8644C17.7893 27.0239 17.6416 27.1689 17.5154 27.2994L17.371 26.895C17.1404 24.975 16.5644 23.245 15.6431 21.7049C15.6205 21.6979 15.4613 21.3595 15.1654 20.6897C15.1999 20.6438 15.2315 20.6112 15.2601 20.5918ZM10.325 33.8646C10.491 35.0488 10.9393 36.0927 11.6699 36.9964C12.748 35.9726 13.3464 35.4083 13.4651 35.3035C13.7025 35.094 13.9731 34.9037 14.2768 34.7325C14.465 34.639 14.6154 34.6151 14.728 34.661C14.8438 34.6797 14.9615 34.7815 15.0812 34.9662C15.1842 35.0931 15.2739 35.2316 15.3505 35.3818C15.5602 35.8016 15.5434 36.1915 15.2998 36.5515C15.2142 36.6754 15.1451 36.7606 15.0923 36.8072C13.6385 38.211 12.4892 39.1888 11.6443 39.7408C11.608 39.7486 11.4891 39.8051 11.2877 39.9103C10.9245 40.0856 10.6332 40.0039 10.4138 39.6653C9.85531 38.8033 9.41939 38.0024 9.10604 37.2628C8.7927 36.5232 8.60321 35.7347 8.53758 34.8975L8.49705 34.6429C8.49673 34.5464 8.49142 34.4422 8.48112 34.3304C8.46086 34.2031 8.44895 34.1047 8.44542 34.0352C8.28874 32.6735 7.68007 31.638 6.61938 30.9288C6.23815 30.6603 5.76588 30.3634 5.20256 30.0378C4.35421 29.5284 3.64242 28.8137 3.0672 27.8938C2.64158 27.2049 2.23751 26.5332 1.85499 25.8788C1.72856 25.6517 1.6684 25.4628 1.67451 25.3123C1.69382 25.1501 1.78422 24.9856 1.94572 24.8189C2.13682 24.6019 2.3892 24.4155 2.70287 24.2597C3.05611 24.069 3.36399 24.1602 3.62651 24.5334L4.23985 25.4801C4.32961 25.6186 4.47759 25.8631 4.68381 26.2133L5.19244 26.9984C5.64122 27.6911 6.22513 28.2404 6.94416 28.6463C7.08668 28.7382 7.31204 28.8781 7.62024 29.0658L8.32092 29.4274C9.22558 29.9598 9.79227 30.8025 10.021 31.9555L10.325 33.8646ZM0.557396 37.8181C0.141442 37.2945 -0.0417095 36.8084 0.0079422 36.36C0.0575942 35.9115 0.234005 35.5233 0.537175 35.1953C0.852471 34.8542 1.20357 34.6717 1.59049 34.6479C1.98953 34.6109 2.39702 34.8542 2.81298 35.3778C3.21769 35.8873 3.39478 36.3799 3.34424 36.8556C3.30583 37.3182 3.12898 37.7201 2.81368 38.0612C2.51051 38.3892 2.15985 38.558 1.7617 38.5678C1.36354 38.5775 0.962109 38.3276 0.557396 37.8181ZM71.5375 17.2752C71.6985 19.6036 71.7892 20.8866 71.8097 21.1241C71.871 21.9731 72.2722 22.441 73.0134 22.5278C73.1116 22.5445 73.2437 22.5571 73.4097 22.5658C73.5921 22.5773 73.6996 22.5858 73.7323 22.5913C73.9474 22.6083 74.0855 22.5733 74.1465 22.4861C74.2215 22.4209 74.2662 22.2627 74.2808 22.0116C74.3124 21.4905 74.3159 20.9255 74.2916 20.3169C74.2282 18.278 74.3274 16.7445 74.5893 15.7164C75.115 13.7775 75.1149 11.7006 74.5889 9.48564C74.0861 7.35266 73.8732 5.23964 73.9503 3.14659C73.9675 2.73999 73.912 2.44781 73.7838 2.27003C73.6719 2.09503 73.4442 1.97836 73.1005 1.92002C72.9042 1.88669 72.6891 1.86967 72.4552 1.86897C72.2401 1.85196 71.9993 1.84032 71.7327 1.83407C71.4848 1.8115 71.2779 1.79587 71.1119 1.78719C70.7471 1.76427 70.4965 1.96548 70.3599 2.39083C69.9856 3.51686 69.6762 4.39064 69.4316 5.01217C68.9683 6.1816 68.6452 7.43333 68.4622 8.76736C68.2316 10.4833 67.7483 12.2831 67.0122 14.1668C66.5043 15.4262 66.0772 16.6408 65.7309 17.8105C65.5637 18.3477 65.3594 19.2491 65.1181 20.5147C65.066 20.7984 65.0668 20.9935 65.1203 21.1001C65.1902 21.2095 65.3549 21.2959 65.6144 21.3595C65.8902 21.4258 66.1859 21.4663 66.5016 21.4808C66.8803 21.5256 67.1544 21.3381 67.3237 20.9184C67.4177 20.7003 67.4953 20.4795 67.5566 20.2559C67.9452 19.0152 68.2161 18.1154 68.3693 17.5564C68.4848 17.1665 68.691 16.987 68.9879 17.0179C69.1843 17.0512 70.0341 17.137 71.5375 17.2752ZM71.7067 7.27052C72.1316 9.76079 72.3555 11.1151 72.3784 11.3335C72.4891 12.0544 72.412 13.0748 72.1472 14.395C72.0115 14.411 71.6572 14.4386 71.0841 14.4778C70.5298 14.5007 70.0937 14.5144 69.7756 14.5189L69.9064 14.0731C70.7778 12.3099 71.2695 10.4432 71.3814 8.47311C71.3862 8.43492 71.4455 8.02572 71.5595 7.24551L71.6331 7.25801L71.7067 7.27052ZM85.9163 20.8014C85.899 21.7657 85.8939 22.2908 85.901 22.3767C85.9376 22.6414 86.0466 22.9283 86.2281 23.2374C86.706 23.9902 87.2876 24.1071 87.973 23.5882C88.3781 23.2741 88.6972 22.8178 88.9303 22.2195C89.5298 20.5657 89.5362 19.0174 88.9495 17.5745C88.4766 16.431 88.0333 15.3319 87.6197 14.2771C87.3104 13.4968 87.1143 12.9639 87.0314 12.6784C86.7945 11.7859 86.7998 10.992 87.0473 10.2967C87.2947 9.60136 87.7723 9.04067 88.4802 8.61459C89.3496 8.07505 90.2099 7.83131 91.0611 7.88338C92.0477 7.95496 92.8695 8.41781 93.5266 9.27191C94.1838 10.126 94.4769 11.1162 94.4061 12.2426C94.3868 12.7303 94.3378 13.1736 94.2592 13.5726C94.2186 13.8025 94.1526 13.9487 94.0612 14.0109C93.9852 14.0801 93.8486 14.0911 93.6516 14.0438C93.3251 13.959 92.8521 13.8082 92.2326 13.5915C91.9275 13.4956 91.7698 13.2488 91.7594 12.8511C91.7324 12.3426 91.6977 11.965 91.6551 11.7184C91.5547 10.9493 91.2677 10.5306 90.794 10.4623C90.591 10.433 90.3814 10.5042 90.1652 10.6758C89.9645 10.8543 89.7951 11.0987 89.6572 11.4089C89.1791 12.6416 89.3587 13.922 90.1959 15.2501C90.8114 16.2302 91.3397 17.0988 91.7809 17.8557C92.4876 19.0424 92.5182 20.3178 91.8726 21.6819C91.0985 23.3812 90.4067 24.5901 89.7972 25.3087C88.8633 26.419 87.8627 26.8995 86.7955 26.7502C85.4671 26.5869 84.4692 25.7449 83.8019 24.2244C83.5221 23.6228 83.3468 23.0269 83.276 22.4366C83.2111 21.8283 83.2584 21.2291 83.4179 20.639C83.4833 20.4409 83.5476 20.2733 83.6106 20.1362C83.752 19.8689 83.9308 19.7839 84.1468 19.8811C84.3877 20.0102 84.9775 20.3169 85.9163 20.8014ZM97.9395 28.3874C97.411 30.5144 97.1247 31.6848 97.0807 31.8988C96.885 32.676 97.1068 33.2473 97.746 33.6126C97.804 33.6498 97.866 33.6784 97.9319 33.6987C98.0044 33.7451 98.0809 33.783 98.1613 33.8125L98.357 33.9379C98.5534 34.0416 98.6893 34.0736 98.7646 34.0338C98.8544 34.0033 98.9365 33.8687 99.011 33.6302C99.1809 33.1887 99.3377 32.6948 99.4814 32.1485C100 30.3234 100.535 29.0042 101.088 28.1911C102.085 26.6724 102.671 24.8244 102.846 22.6471C103.01 20.573 103.418 18.6221 104.07 16.7943C104.208 16.4204 104.247 16.1372 104.186 15.9445C104.134 15.7348 103.959 15.5457 103.661 15.3769C103.444 15.2376 103.127 15.0681 102.712 14.8681C102.311 14.6775 102.06 14.5497 101.959 14.4847C101.638 14.3236 101.354 14.4059 101.107 14.7317C100.465 15.5754 99.9443 16.2214 99.5447 16.67C98.7906 17.5518 98.1477 18.5379 97.6161 19.6283C96.9175 21.074 95.9681 22.4912 94.7681 23.88C93.9756 24.8033 93.2577 25.7083 92.6144 26.5951C92.3191 27.0224 91.8807 27.7542 91.2991 28.7905C91.1732 29.0181 91.1234 29.1843 91.1495 29.2891C91.1822 29.4201 91.2961 29.5591 91.4911 29.706C91.7296 29.8807 91.9873 30.0347 92.2641 30.168C92.5765 30.346 92.8709 30.2814 93.1474 29.9742C93.2929 29.8253 93.4239 29.667 93.5404 29.4995C94.238 28.5374 94.7344 27.8427 95.0297 27.4154C95.2467 27.1142 95.4752 27.0294 95.7151 27.161C95.8456 27.2446 96.5871 27.6534 97.9395 28.3874ZM100.904 19.5549C100.582 21.9243 100.4 23.2159 100.356 23.4299C100.245 24.1072 99.8863 24.9894 99.2808 26.0765C99.1344 26.0268 98.959 25.9585 98.7547 25.8717C98.5648 25.7941 98.3894 25.7258 98.2285 25.6668C98.0821 25.6171 97.9028 25.5573 97.6905 25.4873C97.4861 25.4005 97.3035 25.3275 97.1426 25.2685L97.3651 24.9157C98.6558 23.6951 99.629 22.2272 100.285 20.5118C100.278 20.4856 100.444 20.1519 100.784 19.5106C100.835 19.5216 100.875 19.5363 100.904 19.5549ZM110.438 24.6617C110.448 24.6461 110.563 24.3979 110.785 23.917C110.255 23.3898 109.962 23.0898 109.905 23.0171C109.852 22.9713 109.717 22.8434 109.5 22.6333C109.297 22.4347 109.14 22.2761 109.03 22.1576C108.933 22.0505 108.862 21.9528 108.815 21.8645C108.768 21.7762 108.749 21.676 108.758 21.564C108.78 21.4634 108.824 21.3453 108.889 21.2095C109.186 20.6738 109.482 20.2211 109.777 19.8514C110.091 19.4507 110.448 19.4219 110.848 19.7652C111.008 19.9025 111.224 20.1126 111.497 20.3954C111.784 20.6897 111.987 20.8883 112.107 20.9913C112.35 21.2243 112.782 21.6309 113.401 22.2113C114.044 22.7875 114.54 23.2379 114.89 23.5624C115.346 23.9785 115.704 24.3704 115.965 24.7383C116.082 24.9108 116.154 25.0567 116.182 25.1761C116.232 25.2914 116.235 25.4013 116.189 25.506C116.157 25.6222 116.082 25.7734 115.964 25.9599C115.7 26.3795 115.512 26.6612 115.4 26.8052C115.197 27.062 115.008 27.199 114.833 27.2163C114.681 27.2294 114.473 27.135 114.211 26.9332C114.161 26.9144 113.662 26.5335 112.714 25.7905C112.406 26.2453 112.181 26.8304 112.037 27.5459C112.006 27.7585 111.957 28.064 111.89 28.4622C111.847 28.8563 111.826 29.1017 111.826 29.1981C111.776 29.5383 111.72 29.838 111.66 30.0972C111.458 31.0025 111.033 31.6919 110.385 32.1656C110.017 32.4241 109.617 32.6675 109.185 32.8958C108.101 33.4743 107.244 34.2955 106.614 35.3595C106.529 35.5264 106.041 36.3168 105.149 37.7309C105.021 37.9329 104.936 38.0515 104.893 38.0867C104.605 38.4139 104.319 38.4438 104.036 38.1765C103.806 37.955 103.511 37.6415 103.15 37.2361C102.94 36.9835 102.918 36.7251 103.085 36.4609C103.199 36.2475 103.353 35.9719 103.545 35.6341C103.738 35.2963 103.901 35.0052 104.035 34.7606C104.169 34.5161 104.324 34.254 104.5 33.9743C104.677 33.6946 104.855 33.4284 105.035 33.1756C105.238 32.9188 105.438 32.6832 105.635 32.4689C105.76 32.3364 105.902 32.2076 106.064 32.0824C106.225 31.9573 106.36 31.8575 106.468 31.783C106.587 31.693 106.749 31.5814 106.957 31.448C107.187 31.3106 107.34 31.2144 107.416 31.1596C108.156 30.6696 108.648 30.2651 108.89 29.9461C109.404 29.2615 109.709 28.3726 109.803 27.2793C109.894 26.2555 110.106 25.383 110.438 24.6617ZM116.031 34.5235C115.644 34.4996 115.243 34.7495 114.827 35.2731C114.422 35.7826 114.239 36.2686 114.277 36.7312C114.316 37.1938 114.486 37.5891 114.79 37.9171C115.105 38.2582 115.462 38.4336 115.86 38.4434C116.27 38.4662 116.677 38.2229 117.082 37.7134C117.498 37.1898 117.675 36.6972 117.613 36.2356C117.564 35.7872 117.381 35.3924 117.066 35.0513C116.763 34.7233 116.418 34.5473 116.031 34.5235Z" fill="#603DBD"/>
</svg>
