<svg width="178" height="61" viewBox="0 0 178 61" fill="none" xmlns="http://www.w3.org/2000/svg">
<path fill-rule="evenodd" clip-rule="evenodd" d="M90.0536 25.0301C89.5066 23.0929 89.3934 21.1986 89.7139 19.3471C89.5404 19.3183 89.3545 19.3041 89.1562 19.3044C88.9579 19.2757 88.7844 19.2614 88.6357 19.2616C88.487 19.2329 88.3135 19.2042 88.1152 19.1755C87.9417 19.1468 87.7806 19.1325 87.6319 19.1327C86.7658 20.6667 86.2964 22.3593 86.2238 24.2105C86.2241 24.5865 86.2122 25.1072 86.188 25.7725C86.1638 26.4377 86.1518 26.9005 86.1521 27.1608C86.1038 28.6071 85.919 29.7787 85.5976 30.6757C85.4493 31.0809 85.3008 31.3269 85.1522 31.4138C85.0036 31.5297 84.7558 31.5589 84.4087 31.5015C84.2848 31.4728 83.3924 31.2714 81.7315 30.8974C81.7554 29.914 81.7546 29.0318 81.7291 28.2509C81.7284 27.4411 81.74 26.5589 81.7639 25.6044C81.7878 24.6498 81.8614 23.7965 81.9846 23.0443C82.0586 22.5815 82.3304 21.6556 82.8 20.2667C82.8494 20.0931 82.9112 19.905 82.9854 19.7024C83.0596 19.4999 83.1214 19.3262 83.1708 19.1816C83.245 19.0369 83.3192 18.8632 83.3934 18.6607C83.4675 18.4581 83.5294 18.2845 83.5788 18.1398C84.1967 16.259 84.1702 14.4079 83.4994 12.5866C83.0025 11.1988 82.6795 10.2881 82.5304 9.85448C82.2321 8.87144 82.07 7.75808 82.0441 6.51439C82.0181 5.24178 82.0667 4.09924 82.1897 3.08676L82.1893 2.69629C82.214 2.52271 82.2386 2.40699 82.2634 2.34911C82.2877 1.79953 82.3617 1.45236 82.4855 1.30759C82.6093 1.16282 82.8942 1.03231 83.3402 0.916067C85.6941 0.276849 88.0735 0.404078 90.4783 1.29775C92.189 1.93197 93.3178 3.17429 93.8647 5.02474C95.1822 9.41951 95.8658 11.6747 95.9155 11.7904C96.4626 13.8143 96.0427 15.4057 94.6558 16.5643C93.7643 17.3174 93.2819 18.3593 93.2088 19.6898C93.111 21.2229 93.2489 22.9292 93.6223 24.8088L94.6679 29.927C94.7176 30.0716 94.7425 30.2017 94.7426 30.3174C94.8175 30.8958 94.7806 31.2718 94.6321 31.4456C94.5083 31.6193 94.1986 31.7064 93.7029 31.707C92.9346 31.679 92.4017 31.6508 92.1043 31.6222C91.6829 31.5649 91.3978 31.464 91.2489 31.3196C91.1249 31.1751 91.0255 30.8715 90.9507 30.4088C90.876 30.0329 90.5895 28.3846 90.0912 25.464C90.0912 25.435 90.0787 25.3772 90.0539 25.2905L90.0536 25.0301ZM88.4742 5.07476C88.3999 5.07485 87.7802 5.01776 86.6153 4.9035C86.5163 5.07717 86.4668 5.17846 86.4668 5.20738C86.3195 6.71159 86.3453 7.82512 86.5442 8.54797C86.6189 8.89496 87.2031 10.8466 88.2968 14.4029C89.0402 14.3152 89.4491 14.2713 89.5235 14.2712C90.4156 14.1544 90.9854 13.8934 91.2328 13.4881C91.4803 13.054 91.4671 12.2297 91.1934 11.0152C90.9945 10.3213 90.6711 8.97675 90.2232 6.98157C89.9744 5.88277 89.3914 5.24717 88.4742 5.07476ZM65.062 19.8173C65.0112 20.4106 64.9862 20.8096 64.9868 21.0141C64.8477 22.4995 64.783 23.6799 64.7927 24.5552C64.8702 26.9682 65.6717 28.8628 67.1972 30.239C68.3535 31.269 69.7714 31.8889 71.451 32.0986C71.9839 32.1536 72.5302 32.0163 73.09 31.6867C74.374 30.9409 75.3156 29.9614 75.9147 28.7481C76.5383 27.5306 76.7881 26.1286 76.664 24.542C76.5064 22.2888 76.6191 20.1941 77.0021 18.2577C77.3577 16.5014 77.3862 14.9326 77.0875 13.5512C76.5188 11.0176 75.6467 8.36039 74.4709 5.57974C73.7648 3.94653 72.4106 2.93575 70.408 2.54741C69.7172 2.4317 69.0356 2.48979 68.3634 2.72168C67.2533 3.05768 66.1655 3.76991 65.0998 4.85837C64.4324 5.52792 64.004 6.40508 63.8146 7.48985C63.584 8.84476 63.7113 10.3577 64.1967 12.0286C64.2428 12.1962 64.5815 13.4975 65.2129 15.9328C65.2632 16.3334 65.2821 16.7833 65.2697 17.2824C65.2536 17.7529 65.2267 18.1375 65.1891 18.4362C65.176 18.7308 65.1336 19.1912 65.062 19.8173ZM69.2152 21.4749C69.2457 21.1189 69.2674 20.7936 69.2806 20.499C69.6294 17.6915 69.3819 14.7229 68.538 11.5931C68.3429 10.8372 68.2142 10.0115 68.1518 9.11595C68.1176 8.24483 68.4103 7.6832 69.0299 7.43108C69.3869 7.28232 69.6674 7.32204 69.8714 7.55025C70.3111 8.0597 70.5504 8.36957 70.5893 8.47985C71.5748 10.9422 72.1795 12.6659 72.4034 13.6507C72.7481 15.1996 72.8325 16.9683 72.6564 18.957C72.6092 19.579 72.557 20.2602 72.4997 21.0009C72.4424 21.7415 72.3782 22.5271 72.3072 23.3578C72.2571 24.1556 72.2031 24.8226 72.1451 25.3587C72.1045 25.8333 72.0445 26.2529 71.965 26.6173C71.8371 27.1945 71.5261 27.5108 71.0321 27.5661C70.489 27.6297 70.1307 27.3694 69.9572 26.7852C69.8902 26.6505 69.637 25.8315 69.1978 24.328C69.2145 24.0621 69.2117 23.741 69.1895 23.3648C69.1918 22.9843 69.1891 22.6632 69.1813 22.4015C69.1944 22.1069 69.2057 21.798 69.2152 21.4749ZM49.4748 18.8779C49.5963 19.0466 50.3987 20.0926 51.8821 22.0161L55.9025 20.5946C55.214 19.5385 54.8353 18.9773 54.7663 18.911C54.7591 18.8834 54.3128 18.3612 53.4273 17.3445C52.6109 16.394 52.0542 15.3971 51.7575 14.3536C51.0396 11.8874 50.6016 10.3499 50.4435 9.74088C50.3141 9.24262 50.299 8.88529 50.3982 8.66888C50.4974 8.45248 50.7641 8.28264 51.1982 8.15936C51.8624 7.92455 52.4388 7.75095 52.9276 7.63859C53.274 7.57654 53.5281 7.6076 53.6898 7.73175C53.8752 7.84752 54.0147 8.08533 54.1081 8.44519C54.4552 9.68246 54.7164 10.7385 54.8917 11.6134C55.3717 13.8615 56.3444 15.6633 57.8099 17.0189C57.8861 17.1129 57.9968 17.24 58.1419 17.4002C58.2871 17.5604 58.3752 17.6502 58.4061 17.6695C59.86 19.1803 60.4425 21.0747 60.1534 23.3529C60.0297 24.2731 59.8974 25.0603 59.7565 25.7146C59.4395 27.1866 59.4563 28.7976 59.8069 30.5474C60.1863 32.4079 60.4026 33.5403 60.4558 33.9446C60.5255 34.3128 60.5463 34.5926 60.5183 34.7838C60.5068 34.939 60.4406 35.0833 60.3199 35.2166C60.2157 35.3139 60.0166 35.4448 59.7226 35.6091C59.1677 35.8658 58.7123 36.057 58.3566 36.1828C57.6378 36.4067 57.1731 36.163 56.9626 35.4517C56.673 34.4358 56.4013 33.4892 56.1477 32.6118C55.9105 31.6983 55.7575 30.7098 55.6886 29.6462C55.6196 28.5826 55.6944 27.5739 55.913 26.6202C55.9389 26.5204 56.0934 25.6195 56.3767 23.9176C55.5084 24.1641 55.0387 24.3 54.9676 24.3251L53.8291 24.7277L52.904 25.0548C52.5245 25.1889 52.302 25.4791 52.2366 25.9254C52.1949 26.3632 52.0626 27.1505 51.8397 28.287C51.5255 29.9697 51.5794 31.6733 52.0012 33.3979C52.3102 34.5882 52.5132 35.6195 52.6101 36.4919C52.6727 36.8324 52.6935 37.1122 52.6726 37.3311C52.6518 37.55 52.6 37.7497 52.5173 37.93C52.4275 38.0827 52.2949 38.2202 52.1195 38.3427C51.9369 38.4374 51.7033 38.5351 51.4187 38.6358C51.0866 38.7532 50.5623 38.8781 49.8457 39.0106C49.3332 39.1314 48.9933 38.9191 48.8258 38.3739C48.7518 38.1885 48.6012 37.7582 48.3742 37.0829C48.1471 36.4077 47.994 35.9178 47.915 35.6133C47.8287 35.2811 47.7292 34.8479 47.6164 34.3135C47.4964 33.7515 47.4263 33.2323 47.4062 32.7559C47.3861 32.2794 47.4135 31.7862 47.4883 31.2762C47.5185 30.9935 47.6461 30.2382 47.8711 29.0102C47.9042 28.9381 47.9771 28.6705 48.09 28.2075C48.7722 25.5485 48.2448 23.3172 46.5077 21.5137C46.1483 21.127 45.7056 20.6186 45.1795 19.9886C44.3343 18.9275 43.7842 17.6562 43.5291 16.1749C43.4666 15.8343 43.3933 15.4522 43.3092 15.0286C43.2489 14.5966 43.1731 14.155 43.0818 13.7037C42.9906 13.2524 42.9173 12.8703 42.8619 12.5575C42.7585 11.9594 42.7481 11.5702 42.8307 11.3898C42.9371 11.2011 43.2358 11.0049 43.7267 10.8011L45.2922 10.2476C45.6077 10.1662 45.8629 10.1516 46.0576 10.2036C46.2761 10.2472 46.4497 10.3672 46.5784 10.5635C46.7235 10.7237 46.8428 10.9837 46.9362 11.3436C47.1159 12.0356 47.2876 12.8967 47.4515 13.9267C47.7884 15.9231 48.4629 17.5735 49.4748 18.8779ZM31.1574 42.6479C33.0894 45.0837 34.1561 46.4172 34.3575 46.6485C35.0615 47.5424 35.8615 47.6515 36.7576 46.9758C36.8433 46.9176 36.9227 46.8469 36.9959 46.7637C37.103 46.6909 37.2039 46.6057 37.2985 46.5079L37.5877 46.3115C37.8536 46.0973 37.9938 45.9184 38.0082 45.7748C38.044 45.6166 37.9594 45.3896 37.7545 45.0937C37.3999 44.4979 36.9776 43.8812 36.4875 43.2436C34.88 41.0559 33.8422 39.2341 33.3741 37.7783C32.4734 35.1104 30.8928 32.804 28.6322 30.8592C26.4767 29.0103 24.6453 26.891 23.1378 24.5015C22.8332 24.0056 22.5515 23.7284 22.2929 23.6699C22.0218 23.5863 21.6783 23.7026 21.2623 24.0186C20.9411 24.2369 20.51 24.5799 19.9691 25.0478C19.4496 25.5012 19.1149 25.7788 18.9649 25.8806C18.5401 26.2362 18.4113 26.7253 18.5785 27.348C19.0108 28.962 19.3193 30.2417 19.5041 31.1871C19.8917 32.9988 20.48 34.7243 21.269 36.3636C22.32 38.5279 23.1458 41.0458 23.7466 43.9175C24.1502 45.8188 24.5912 47.5941 25.0699 49.2435C25.3119 50.0162 25.7784 51.2388 26.4693 52.9113C26.6225 53.2758 26.7668 53.4789 26.9024 53.5207C27.0718 53.573 27.3127 53.5097 27.625 53.331C28.0016 53.1086 28.3702 52.8414 28.7308 52.5295C29.1681 52.1989 29.3246 51.7077 29.2002 51.056C29.1487 50.7228 29.0758 50.4042 28.9815 50.1001C28.4619 48.3112 28.0811 47.0304 27.8391 46.2577C27.6754 45.6996 27.7587 45.2916 28.0889 45.0338C28.2817 44.9028 29.3045 44.1075 31.1574 42.6479ZM23.7294 31.3788C26.0878 33.6922 27.3678 34.9646 27.5692 35.1959C28.2287 35.8857 28.9227 37.1044 29.651 38.8519C29.4832 39.0329 29.2725 39.2429 29.019 39.4821C28.7869 39.7067 28.5762 39.9168 28.387 40.1123C28.2192 40.2932 28.0147 40.5158 27.7737 40.78C27.5202 41.0191 27.2988 41.2365 27.1095 41.432L26.8932 40.8259C26.5476 37.9483 25.6843 35.3553 24.3034 33.0471C24.2696 33.0366 24.0309 32.5294 23.5874 31.5254C23.6392 31.4568 23.6865 31.4079 23.7294 31.3788ZM16.3323 51.2719C16.5811 53.0466 17.253 54.6113 18.348 55.9657C19.9638 54.4312 20.8606 53.5855 21.0386 53.4285C21.3944 53.1145 21.7999 52.8292 22.2551 52.5726C22.5372 52.4325 22.7626 52.3967 22.9314 52.4654C23.1049 52.4935 23.2814 52.646 23.4608 52.9229C23.6151 53.1131 23.7496 53.3207 23.8644 53.5458C24.1787 54.1749 24.1534 54.7593 23.7884 55.2989C23.6602 55.4846 23.5565 55.6124 23.4774 55.6821C21.2984 57.7861 19.5759 59.2517 18.3097 60.0789C18.2552 60.0907 18.077 60.1754 17.7752 60.3329C17.2308 60.5957 16.7942 60.4733 16.4653 59.9658C15.6283 58.6738 14.9749 57.4735 14.5053 56.365C14.0357 55.2564 13.7517 54.0747 13.6533 52.8199L13.5926 52.4383C13.5921 52.2937 13.5841 52.1376 13.5687 51.9699C13.5383 51.7791 13.5205 51.6317 13.5152 51.5276C13.2804 49.4866 12.3681 47.9347 10.7783 46.8717C10.207 46.4693 9.49914 46.0242 8.65484 45.5364C7.38335 44.7728 6.31653 43.7016 5.45441 42.323C4.81649 41.2904 4.21088 40.2837 3.63757 39.3029C3.44808 38.9624 3.35791 38.6794 3.36707 38.4538C3.39601 38.2107 3.5315 37.9642 3.77355 37.7144C4.05997 37.3891 4.43823 37.1097 4.90836 36.8762C5.43779 36.5903 5.89923 36.7271 6.29268 37.2864L7.21195 38.7053C7.34648 38.9129 7.56828 39.2793 7.87735 39.8043L8.63967 40.9809C9.3123 42.0191 10.1875 42.8424 11.2651 43.4507C11.4787 43.5885 11.8165 43.7982 12.2784 44.0795L13.3286 44.6214C14.6845 45.4193 15.5338 46.6824 15.8766 48.4104L16.3323 51.2719ZM1.69284 57.1973C1.06941 56.4125 0.794909 55.684 0.869325 55.0119C0.943743 54.3398 1.20814 53.7579 1.66253 53.2663C2.13509 52.7551 2.66132 52.4816 3.24121 52.4458C3.83928 52.3903 4.45003 52.755 5.07346 53.5398C5.68003 54.3035 5.94545 55.0418 5.8697 55.7547C5.81213 56.4481 5.54707 57.0504 5.07451 57.5616C4.62013 58.0532 4.09456 58.3063 3.49782 58.3209C2.90107 58.3354 2.29941 57.9609 1.69284 57.1973ZM108.077 26.4079C108.318 29.8978 108.454 31.8207 108.485 32.1766C108.577 33.449 109.178 34.1503 110.289 34.2804C110.436 34.3054 110.634 34.3244 110.883 34.3374C111.156 34.3546 111.318 34.3673 111.367 34.3757C111.689 34.4012 111.896 34.3486 111.987 34.218C112.1 34.1201 112.167 33.8831 112.189 33.5068C112.236 32.7257 112.241 31.879 112.205 30.9667C112.11 27.9109 112.259 25.6125 112.651 24.0716C113.439 21.1656 113.439 18.0528 112.65 14.7331C111.897 11.5362 111.578 8.36929 111.693 5.23227C111.719 4.62287 111.636 4.18495 111.444 3.9185C111.276 3.65621 110.935 3.48135 110.42 3.39392C110.125 3.34395 109.803 3.31845 109.453 3.31741C109.13 3.2919 108.769 3.27447 108.37 3.26509C107.998 3.23127 107.688 3.20784 107.439 3.19483C106.892 3.16048 106.517 3.46205 106.312 4.09955C105.751 5.78723 105.287 7.09683 104.921 8.02836C104.226 9.78109 103.742 11.6572 103.468 13.6566C103.122 16.2284 102.398 18.9259 101.295 21.7492C100.533 23.6367 99.8933 25.4571 99.3742 27.2103C99.1236 28.0154 98.8175 29.3663 98.4558 31.2632C98.3778 31.6884 98.3789 31.9809 98.4591 32.1406C98.5639 32.3046 98.8108 32.4342 99.1996 32.5294C99.613 32.6288 100.056 32.6894 100.529 32.7113C101.097 32.7784 101.508 32.4974 101.761 31.8682C101.902 31.5414 102.019 31.2104 102.111 30.8753C102.693 29.0159 103.099 27.6673 103.329 26.8294C103.502 26.245 103.811 25.9759 104.256 26.0223C104.55 26.0722 105.824 26.2008 108.077 26.4079ZM108.331 11.4131C108.967 15.1455 109.303 17.1754 109.337 17.5027C109.503 18.5831 109.388 20.1125 108.991 22.0911C108.788 22.1151 108.256 22.1564 107.398 22.2152C106.567 22.2496 105.913 22.2701 105.436 22.2769L105.632 21.6087C106.939 18.9661 107.675 16.1684 107.843 13.2156C107.85 13.1583 107.939 12.545 108.11 11.3757L108.22 11.3944L108.331 11.4131ZM129.628 31.6928C129.602 33.1381 129.594 33.9252 129.605 34.0539C129.66 34.4506 129.823 34.8806 130.095 35.3439C130.811 36.4722 131.683 36.6475 132.71 35.8697C133.318 35.3989 133.796 34.7151 134.145 33.8183C135.044 31.3397 135.053 29.0191 134.174 26.8566C133.465 25.1427 132.801 23.4953 132.181 21.9145C131.717 20.7449 131.423 19.9462 131.299 19.5183C130.944 18.1806 130.952 16.9907 131.323 15.9486C131.694 14.9065 132.41 14.0662 133.471 13.4276C134.774 12.6189 136.063 12.2536 137.339 12.3316C138.817 12.4389 140.049 13.1326 141.034 14.4127C142.019 15.6929 142.458 17.177 142.352 18.8652C142.323 19.5961 142.25 20.2606 142.132 20.8585C142.071 21.2032 141.972 21.4221 141.835 21.5155C141.721 21.6192 141.517 21.6356 141.221 21.5647C140.732 21.4376 140.023 21.2116 139.094 20.8868C138.637 20.7431 138.401 20.3732 138.385 19.7772C138.345 19.0151 138.293 18.4492 138.229 18.0795C138.079 16.9268 137.648 16.2993 136.938 16.1969C136.634 16.153 136.32 16.2596 135.996 16.5168C135.695 16.7844 135.441 17.1507 135.235 17.6156C134.518 19.4631 134.787 21.3822 136.042 23.3727C136.965 24.8418 137.756 26.1435 138.417 27.2779C139.477 29.0565 139.523 30.9681 138.555 33.0126C137.395 35.5595 136.358 37.3714 135.444 38.4483C134.045 40.1124 132.545 40.8326 130.946 40.6089C128.955 40.3641 127.459 39.1022 126.459 36.8232C126.039 35.9216 125.777 35.0284 125.671 34.1437C125.573 33.232 125.644 32.3339 125.883 31.4495C125.981 31.1526 126.078 30.9014 126.172 30.6959C126.384 30.2954 126.652 30.1679 126.976 30.3136C127.337 30.507 128.221 30.9668 129.628 31.6928ZM147.647 43.0627C146.854 46.2505 146.425 48.0047 146.359 48.3254C146.066 49.4903 146.399 50.3465 147.357 50.8941C147.444 50.9498 147.536 50.9927 147.635 51.023C147.744 51.0926 147.859 51.1495 147.979 51.1937L148.272 51.3816C148.567 51.5371 148.77 51.585 148.883 51.5253C149.018 51.4796 149.141 51.278 149.253 50.9205C149.507 50.2587 149.742 49.5185 149.958 48.6996C150.735 45.9642 151.537 43.9872 152.365 42.7685C153.859 40.4922 154.738 37.7225 155 34.4592C155.246 31.3506 155.857 28.4266 156.835 25.6871C157.042 25.1268 157.1 24.7022 157.009 24.4134C156.931 24.0992 156.669 23.8157 156.222 23.5627C155.896 23.354 155.422 23.0999 154.8 22.8002C154.199 22.5145 153.823 22.323 153.67 22.2256C153.19 21.9841 152.765 22.1075 152.394 22.5957C151.432 23.8602 150.651 24.8285 150.053 25.5008C148.922 26.8225 147.959 28.3004 147.162 29.9347C146.115 32.1015 144.692 34.2256 142.893 36.307C141.706 37.6908 140.63 39.0473 139.665 40.3763C139.223 41.0167 138.566 42.1136 137.694 43.6668C137.505 44.0079 137.431 44.257 137.47 44.4141C137.519 44.6104 137.69 44.8187 137.982 45.0389C138.339 45.3008 138.726 45.5316 139.14 45.7313C139.609 45.9982 140.05 45.9014 140.464 45.4409C140.682 45.2177 140.879 44.9805 141.053 44.7294C142.099 43.2875 142.843 42.2463 143.285 41.6059C143.611 41.1544 143.953 41.0273 144.313 41.2246C144.508 41.3498 145.62 41.9625 147.647 43.0627ZM152.09 29.8247C151.608 33.3758 151.334 35.3117 151.268 35.6324C151.101 36.6476 150.564 37.9698 149.657 39.5991C149.438 39.5246 149.175 39.4223 148.868 39.2921C148.584 39.1758 148.321 39.0735 148.08 38.9851C147.86 38.9106 147.592 38.8209 147.273 38.7161C146.967 38.5859 146.693 38.4766 146.452 38.3881L146.786 37.8594C148.72 36.0299 150.179 33.8298 151.162 31.2589C151.152 31.2196 151.401 30.7194 151.909 29.7583C151.987 29.7747 152.047 29.7968 152.09 29.8247ZM166.379 37.4786C166.394 37.4553 166.567 37.0833 166.899 36.3626C166.105 35.5724 165.665 35.1227 165.58 35.0137C165.5 34.9451 165.298 34.7534 164.973 34.4385C164.669 34.1408 164.434 33.9031 164.269 33.7255C164.124 33.565 164.016 33.4186 163.946 33.2862C163.876 33.1539 163.847 33.0038 163.861 32.8359C163.894 32.6851 163.96 32.508 164.058 32.3046C164.503 31.5017 164.946 30.8232 165.388 30.2691C165.86 29.6684 166.395 29.6254 166.993 30.1399C167.233 30.3457 167.557 30.6605 167.967 31.0844C168.397 31.5255 168.701 31.8232 168.881 31.9775C169.245 32.3267 169.892 32.9362 170.82 33.806C171.783 34.6697 172.527 35.3447 173.051 35.831C173.735 36.4546 174.272 37.0421 174.663 37.5934C174.839 37.852 174.947 38.0707 174.988 38.2496C175.063 38.4224 175.067 38.5872 174.999 38.7441C174.951 38.9181 174.838 39.1449 174.662 39.4244C174.265 40.0532 173.983 40.4755 173.816 40.6913C173.512 41.0762 173.229 41.2815 172.966 41.3074C172.738 41.3271 172.427 41.1856 172.033 40.883C171.959 40.8549 171.211 40.284 169.79 39.1705C169.329 39.8521 168.991 40.729 168.776 41.8015C168.729 42.1201 168.656 42.5779 168.556 43.1747C168.491 43.7655 168.459 44.1331 168.46 44.2778C168.385 44.7876 168.301 45.2368 168.21 45.6253C167.908 46.9821 167.271 48.0154 166.3 48.7253C165.748 49.1128 165.148 49.4776 164.501 49.8197C162.877 50.6867 161.593 51.9176 160.648 53.5123C160.521 53.7624 159.789 54.9471 158.451 57.0665C158.26 57.3693 158.133 57.547 158.069 57.5998C157.636 58.0901 157.208 58.135 156.783 57.7344C156.439 57.4024 155.997 56.9326 155.457 56.3249C155.142 55.9463 155.109 55.559 155.359 55.1631C155.53 54.8432 155.76 54.4301 156.048 53.9239C156.337 53.4176 156.582 52.9812 156.782 52.6147C156.983 52.2482 157.215 51.8554 157.48 51.4361C157.744 51.0169 158.011 50.6179 158.281 50.2391C158.586 49.8542 158.885 49.5012 159.18 49.18C159.367 48.9814 159.581 48.7883 159.823 48.6007C160.064 48.4131 160.266 48.2635 160.429 48.1519C160.607 48.0171 160.851 47.8497 161.161 47.6498C161.507 47.4438 161.736 47.2997 161.85 47.2176C162.96 46.4831 163.696 45.8769 164.059 45.3988C164.83 44.3727 165.286 43.0404 165.427 41.4018C165.564 39.8674 165.882 38.5597 166.379 37.4786ZM174.762 52.2593C174.182 52.2236 173.58 52.5981 172.957 53.3829C172.35 54.1465 172.075 54.875 172.133 55.5683C172.191 56.2616 172.447 56.8541 172.901 57.3457C173.374 57.8569 173.908 58.1198 174.505 58.1344C175.12 58.1686 175.731 57.8039 176.337 57.0403C176.961 56.2555 177.226 55.5172 177.133 54.8254C177.059 54.1533 176.786 53.5616 176.313 53.0504C175.859 52.5588 175.341 52.2951 174.762 52.2593Z" fill="#603DBD"/>
</svg>
