<svg width="48" height="48" viewBox="0 0 48 48" fill="none" xmlns="http://www.w3.org/2000/svg">
<path d="M24.0099 0.713004C11.1648 0.713004 0.713004 11.1618 0.713004 24.0085C0.713004 36.8551 11.1648 47.3039 24.0099 47.3039C36.855 47.3039 47.3068 36.8551 47.3068 24.0085C47.3068 11.1618 36.855 0.713004 24.0099 0.713004ZM24.0099 45.1974C12.327 45.1974 2.82242 35.6914 2.82242 24.0085C2.82242 12.3255 12.327 2.81955 24.0099 2.81955C35.6928 2.81955 45.1974 12.3255 45.1974 24.0085C45.1974 35.6914 35.6928 45.1974 24.0099 45.1974Z" fill="#603DBD" stroke="#603DBD" stroke-width="0.573992"/>
<path d="M37.1071 16.569C37.1776 16.4038 37.2402 16.2352 37.2946 16.0638L37.2947 16.0637C37.3592 15.8603 37.3605 15.6421 37.2984 15.438C37.2364 15.2339 37.1138 15.0534 36.9471 14.9203C36.7803 14.7872 36.577 14.7079 36.3642 14.6928C36.1514 14.6776 35.939 14.7274 35.755 14.8355L35.7538 14.8362C35.0855 15.2332 34.3654 15.5351 33.6142 15.7332C32.5698 14.8402 31.2399 14.347 29.8624 14.3453L29.8618 14.3453C29.0852 14.3459 28.3167 14.5033 27.6024 14.8081C26.888 15.1129 26.2426 15.5588 25.7048 16.119C25.167 16.6793 24.7478 17.3424 24.4724 18.0685C24.2375 18.688 24.1114 19.3425 24.0987 20.0033C21.0726 19.5403 18.3212 17.9705 16.3818 15.5918L16.3819 15.5918L16.3808 15.5906C16.2727 15.4594 16.1345 15.3563 15.978 15.29C15.8215 15.2237 15.6513 15.1961 15.4818 15.2097C15.3124 15.2232 15.1487 15.2774 15.0047 15.3678C14.8608 15.4581 14.7407 15.5818 14.6548 15.7285L14.6544 15.7291C14.1591 16.5793 13.8898 17.5422 13.8724 18.5259C13.8569 19.3981 14.0398 20.2609 14.4054 21.0497C14.3884 21.0586 14.3716 21.068 14.355 21.0777L14.3549 21.0776L14.3463 21.0831C14.1896 21.183 14.0606 21.3207 13.9712 21.4836C13.8818 21.6465 13.8349 21.8293 13.8347 22.0151V22.0153C13.8347 23.6345 14.515 25.1274 15.625 26.1884C15.5699 26.2843 15.53 26.3888 15.5073 26.498C15.47 26.6769 15.4799 26.8624 15.536 27.0364C15.7923 27.836 16.2203 28.57 16.79 29.187C17.2149 29.6471 17.711 30.0338 18.2579 30.333C16.9397 30.8625 15.5066 31.055 14.0893 30.8883L14.0893 30.8883L14.0848 30.8878C13.8495 30.8638 13.6128 30.9186 13.4118 31.0435L13.5634 31.2873L13.4118 31.0435C13.2109 31.1685 13.0571 31.3566 12.9746 31.5783L12.9745 31.5783L12.9731 31.5824C12.8934 31.8068 12.8919 32.0515 12.9688 32.2769L13.2404 32.1842L12.9688 32.2769C13.0457 32.5022 13.1965 32.6949 13.3967 32.8238L13.397 32.824C15.7206 34.3153 18.4237 35.1076 21.1847 35.1066L37.1071 16.569ZM37.1071 16.569C37.1313 16.5733 37.1554 16.5783 37.1793 16.5843C37.3992 16.6389 37.5957 16.7628 37.7397 16.9377C37.8837 17.1127 37.9675 17.3293 37.9788 17.5556C37.99 17.7818 37.9281 18.0057 37.8023 18.194M37.1071 16.569L37.8023 18.194M35.6401 20.5549L35.6407 20.6503L35.6407 20.6521C35.6407 27.7487 30.236 35.1066 21.1848 35.1066L35.6401 20.5549ZM35.6401 20.5549C36.477 19.8832 37.2062 19.087 37.8023 18.194M35.6401 20.5549L37.8023 18.194M37.8023 18.194C37.8022 18.194 37.8022 18.1941 37.8021 18.1942L37.5636 18.0347L37.8023 18.194ZM33.2501 17.942C33.1564 17.9379 33.0633 17.9213 32.9733 17.8923C32.803 17.8375 32.6494 17.7403 32.5271 17.6098M33.2501 17.942L18.8701 27.3749L18.9443 27.6522C18.9444 27.6522 18.9445 27.6521 18.9446 27.6521C19.1745 27.5905 19.3768 27.4528 19.5185 27.2615C19.6602 27.0701 19.7329 26.8363 19.7246 26.5983C19.7164 26.3603 19.6277 26.1321 19.4731 25.9509C19.3188 25.7701 19.1078 25.6468 18.8746 25.6011C18.2272 25.4692 17.6278 25.1639 17.1404 24.7178C16.7757 24.3839 16.484 23.9806 16.2814 23.5334C16.5154 23.5703 16.7516 23.593 16.988 23.6008L16.988 23.601L16.9987 23.6009C17.4475 23.599 17.8788 23.3236 18.0253 22.8698C18.1694 22.4237 18.0001 21.9325 17.6069 21.6715C16.981 21.2544 16.4991 20.6543 16.2269 19.9532C16.0189 19.4171 15.9412 18.8419 15.9969 18.2745C18.4949 20.6486 21.7642 22.0575 25.218 22.2359L25.218 22.2362L25.2311 22.2363C25.5564 22.2381 25.8644 22.1193 26.0808 21.8584C26.2912 21.6047 26.3722 21.2677 26.2973 20.9446L26.2973 20.9445C26.1153 20.1607 26.1967 19.3389 26.5289 18.606C26.8611 17.8732 27.4255 17.2703 28.1349 16.8907C28.8442 16.511 29.659 16.3757 30.453 16.5057C31.2469 16.6357 31.9759 17.0237 32.5271 17.6098M33.2501 17.942C33.2434 17.9579 33.2372 17.974 33.2313 17.9903C33.15 18.2159 33.148 18.4624 33.2256 18.6892C33.3032 18.916 33.4558 19.1096 33.6582 19.2382C33.7059 19.2684 33.7557 19.2947 33.8071 19.3168C33.7327 19.3955 33.6706 19.4854 33.6233 19.5837C33.5468 19.7424 33.5114 19.9178 33.5201 20.0938L33.8068 20.0795M33.2501 17.942L18.3589 27.7782C18.6344 28.0717 18.9573 28.3187 19.3151 28.5082C19.8222 28.7768 20.3854 28.9224 20.9592 28.9334L20.9597 28.9334C21.177 28.938 21.3875 29.0095 21.5625 29.1383L21.3925 29.3695L21.5625 29.1383C21.7376 29.267 21.8686 29.4467 21.9376 29.6528C22.0066 29.8588 22.0103 30.0811 21.9482 30.2894C21.8861 30.4976 21.7612 30.6816 21.5906 30.8161L21.5904 30.8162C20.5579 31.6294 19.3835 32.2383 18.1306 32.614C19.1276 32.8695 20.1541 32.9991 21.186 32.9986H21.1861C28.9112 32.9986 33.5327 26.7285 33.5327 20.6506C33.5327 20.4655 33.5285 20.2776 33.5201 20.0925L33.8068 20.0795M32.5271 17.6098C32.527 17.6097 32.5269 17.6096 32.5269 17.6096L32.7363 17.4133M32.5271 17.6098C32.5271 17.6098 32.5272 17.6099 32.5272 17.6099L32.7363 17.4133M32.7363 17.4133C32.8254 17.5084 32.9372 17.5792 33.0612 17.6191L26.2675 18.4876C26.6257 17.6973 27.2344 17.0471 27.9994 16.6376C28.7644 16.2282 29.6431 16.0823 30.4994 16.2225C31.3556 16.3627 32.1418 16.7812 32.7363 17.4133ZM33.8068 20.0795C33.8154 20.2689 33.8197 20.4612 33.8197 20.6506C33.8197 26.8612 29.0943 33.2856 21.1861 33.2856L34.1253 19.418C34.0212 19.4929 33.9375 19.5926 33.8819 19.7082C33.8262 19.8237 33.8004 19.9514 33.8068 20.0795ZM13.5521 32.5825C15.8294 34.0441 18.4787 34.8206 21.1847 34.8196L13.5521 32.5825Z" fill="#603DBD" stroke="#603DBD" stroke-width="0.573992"/>
</svg>
